<svg xmlns="http://www.w3.org/2000/svg" width="663.554" height="511" viewBox="0 0 663.554 511">
  <g id="Group_192" data-name="Group 192" transform="translate(-408.446 -785)">
    <g id="Group_22" data-name="Group 22" transform="translate(-1913.301 932.434)">
      <path id="Path_146" data-name="Path 146" d="M2334.742-43.178q79.931-3,159.942-.617c-.588,22.876-1.176,45.78.061,68.63.48,8.878-.062,17.746-.058,26.637.005,12.965-.292,25.873-1,38.818-1.123,20.607.009,41.263,1.142,61.87.9,16.3-.8,30,.091,46.3-43.15-.007-83.739,3.881-126.8,1.186-10.553-.661-20.959.019-31.6-.559.975-34.432-1.09-61.271-.115-95.7.276-9.742-1.769-19.264-.566-32.566.762-8.431.557-21,.239-29.456a389.848,389.848,0,0,1,.468-40.42,216.68,216.68,0,0,0-.5-26.76c-.316-5.114-.542-11.518-.858-16.631" transform="translate(3.008 9.154)" fill="none" stroke="#fff" stroke-miterlimit="10" stroke-width="6"/>
      <path id="Path_147" data-name="Path 147" d="M2397.673,167.764v.566" transform="translate(21.756 72.495)" fill="none" stroke="#fff" stroke-miterlimit="10" stroke-width="6"/>
      <path id="Path_148" data-name="Path 148" d="M2378.279-74.867l102.754-.694A21.205,21.205,0,0,1,2487.2-75c3.958,1.169,6.927,4.609,8.51,8.42s1.977,8,2.267,12.112c1.543,21.822.75,43.734-.044,65.6l-1.805,49.643q-.45,12.411-.9,24.823-1.084,30.239-2.1,60.478c-.018.519-.143,1.176-.652,1.285s-.5-1.018-.077-.713" transform="translate(15.978 0.004)" fill="none" stroke="#fff" stroke-miterlimit="10" stroke-width="6"/>
      <path id="Path_149" data-name="Path 149" d="M2396.121-75.578c-5.268.764-10.548,1.529-15.866,1.769-15.72.71-32-3.109-46.927,1.872a8.017,8.017,0,0,0-3.677,2.1,8.358,8.358,0,0,0-1.542,3.77c-3.906,18-.937,36.666-.509,55.077.376,16.215-1.237,32.423-.98,48.641.174,10.953,1.2,21.9.753,32.845-.348,8.508-1.585,16.953-2.208,25.446-1.264,17.252.014,34.576,1.293,51.827" fill="none" stroke="#fff" stroke-miterlimit="10" stroke-width="6"/>
      <path id="Path_150" data-name="Path 150" d="M2495.747,94.259q-1.252,54.923-2.142,109.853a11.4,11.4,0,0,1-.754,4.737c-1.775,3.75-6.771,4.395-10.919,4.31-8.117-.164-16.255-1.151-24.332-.331-3.877.393-7.71,1.2-11.6,1.4a85.926,85.926,0,0,1-13.23-.818c-19.68-2.078-39.516-1.974-59.306-1.868" transform="translate(14.543 50.597)" fill="none" stroke="#fff" stroke-miterlimit="10" stroke-width="6"/>
      <path id="Path_151" data-name="Path 151" d="M2460.945,132.418" transform="translate(40.606 61.965)" fill="none" stroke="#fff" stroke-miterlimit="10" stroke-width="6"/>
      <path id="Path_152" data-name="Path 152" d="M2388.83,211.721a98.246,98.246,0,0,1-51.276-.812c-4.761-1.377-10.026-3.735-11.4-8.5a15.487,15.487,0,0,1,.134-6.954c1.149-6.464,2.587-12.958,2.277-19.517-.2-4.327-1.167-8.587-1.443-12.91a92.628,92.628,0,0,1,.293-11.544,348.437,348.437,0,0,0-1.344-58.771" transform="translate(0.346 50.136)" fill="none" stroke="#fff" stroke-miterlimit="10" stroke-width="6"/>
    </g>
    <g id="Group_94" data-name="Group 94" transform="translate(411.343 855.522)" opacity="0.47">
      <path id="Path_331" data-name="Path 331" d="M112.866,171.619H234.508c14.616,0,26.467-11.565,26.467-25.832s-11.851-25.832-26.467-25.832a26.818,26.818,0,0,0-14.5,4.222,25.622,25.622,0,0,0-42.566-24.983,20.964,20.964,0,1,0-39.689,12.759q-.631-.041-1.274-.042A18.75,18.75,0,0,0,118.544,136.1a18.212,18.212,0,1,0-5.677,35.516Z" transform="translate(0)" fill="#c9e0eb" fill-rule="evenodd"/>
    </g>
    <g id="Ellipse_37" data-name="Ellipse 37" transform="translate(417 859)" fill="none" stroke="#0055a3" stroke-linecap="round" stroke-width="3" stroke-dasharray="3 6">
      <circle cx="218.5" cy="218.5" r="218.5" stroke="none"/>
      <circle cx="218.5" cy="218.5" r="217" fill="none"/>
    </g>
    <g id="Group_95" data-name="Group 95" transform="translate(602 1128)" opacity="0.47">
      <path id="Path_331-2" data-name="Path 331" d="M242.766,171.619H121.124c-14.616,0-26.467-11.565-26.467-25.832s11.851-25.832,26.467-25.832a26.818,26.818,0,0,1,14.5,4.222,25.622,25.622,0,0,1,42.566-24.983,20.964,20.964,0,1,1,39.689,12.759q.631-.041,1.274-.042A18.75,18.75,0,0,1,237.088,136.1a18.212,18.212,0,1,1,5.677,35.516Z" transform="translate(-94.657 -82.478)" fill="#c9e0eb" fill-rule="evenodd"/>
    </g>
    <g id="Group_46" data-name="Group 46" transform="translate(228.017 458.927)">
      <g id="Group_40" data-name="Group 40" transform="translate(321.013 548.193)">
        <path id="Rectangle_1105" data-name="Rectangle 1105" d="M6.517,0H94.137a6.518,6.518,0,0,1,6.518,6.518V152.852a6.518,6.518,0,0,1-6.518,6.518H6.518A6.518,6.518,0,0,1,0,152.852V6.517A6.517,6.517,0,0,1,6.517,0Z" transform="translate(4.99 4.989)" fill="#fff"/>
        <g id="Group_39" data-name="Group 39">
          <path id="Path_287" data-name="Path 287" d="M423.168,717.54H329.492a8.478,8.478,0,0,1-8.479-8.477V556.672a8.479,8.479,0,0,1,8.479-8.479h93.677a8.478,8.478,0,0,1,8.477,8.479V709.063A8.477,8.477,0,0,1,423.168,717.54ZM332,553.911a3.6,3.6,0,0,0-3.594,3.595V708.228A3.6,3.6,0,0,0,332,711.822h88.661a3.6,3.6,0,0,0,3.593-3.594V557.505a3.6,3.6,0,0,0-3.593-3.595Z" transform="translate(-321.013 -548.193)" fill="#0055a3"/>
        </g>
        <rect id="Rectangle_1106" data-name="Rectangle 1106" width="121.624" height="83.879" transform="translate(97.256 13.377) rotate(90)" fill="#c9e0eb"/>
        <path id="Path_288" data-name="Path 288" d="M374.254,664.74a8.388,8.388,0,1,1-8.387-8.388A8.387,8.387,0,0,1,374.254,664.74Z" transform="translate(-310.549 -517.156)" fill="#0055a3"/>
      </g>
      <g id="Group_45" data-name="Group 45" transform="translate(354.115 579.184)">
        <path id="Path_289" data-name="Path 289" d="M436.438,643.91l-62.07-19.751v-29.99l62.07-19.75a3,3,0,0,1,3.909,2.858v63.774A3,3,0,0,1,436.438,643.91Z" transform="translate(-338.804 -571.699)" fill="#fff"/>
        <path id="Path_290" data-name="Path 290" d="M381.379,649.025h-12l-9-35.989h12Z" transform="translate(-342.817 -560.576)" fill="#fff"/>
        <path id="Path_291" data-name="Path 291" d="M425.635,619.723a15,15,0,1,0,0-29.99Z" transform="translate(-324.093 -567.263)" fill="#c9e0eb"/>
        <path id="Path_292" data-name="Path 292" d="M381.724,589.733H363.73a15,15,0,0,0-15,15h0a14.994,14.994,0,0,0,15,14.994h17.994Z" transform="translate(-346.16 -567.263)" fill="#84d800"/>
        <path id="Path_293" data-name="Path 293" d="M363.73,589.733a15,15,0,0,0-14.307,19.494,15,15,0,0,1,14.307-10.5h17.994v-9Z" transform="translate(-346.16 -567.263)" fill="#fff"/>
        <g id="Group_41" data-name="Group 41" transform="translate(32.99)">
          <path id="Path_294" data-name="Path 294" d="M437.939,647.2a5.621,5.621,0,0,1-1.705-.266h0l-63.864-20.321V592.862l63.864-20.321a5.574,5.574,0,0,1,7.262,5.311v63.774a5.584,5.584,0,0,1-5.556,5.578Zm-.145-5.172a.411.411,0,0,0,.38-.062.4.4,0,0,0,.174-.344V577.852a.4.4,0,0,0-.174-.344.41.41,0,0,0-.38-.062l-60.277,19.18V622.85Z" transform="translate(-372.368 -572.273)" fill="#0055a3"/>
        </g>
        <g id="Group_42" data-name="Group 42" transform="translate(0 19.896)">
          <path id="Path_295" data-name="Path 295" d="M384.872,622.871H364.3a17.569,17.569,0,1,1,0-35.138h20.568ZM364.3,592.881a12.421,12.421,0,1,0,0,24.842h15.42V592.881Z" transform="translate(-346.734 -587.733)" fill="#0055a3"/>
        </g>
        <g id="Group_43" data-name="Group 43" transform="translate(98.969 19.896)">
          <path id="Path_296" data-name="Path 296" d="M426.209,622.871h-2.574V587.733h2.574a17.569,17.569,0,1,1,0,35.138Zm2.574-29.721v24.306a12.423,12.423,0,0,0,0-24.306Z" transform="translate(-423.635 -587.733)" fill="#0055a3"/>
        </g>
        <g id="Group_44" data-name="Group 44" transform="translate(14.995 49.886)">
          <path id="Path_297" data-name="Path 297" d="M381.953,652.172h-12a2.574,2.574,0,0,1-2.5-1.948l-9-35.989a2.577,2.577,0,0,1,2.5-3.2h12a2.573,2.573,0,0,1,2.5,1.95l9,35.989a2.574,2.574,0,0,1-2.5,3.2Zm-9.987-5.148h6.69l-7.71-30.841h-6.69Z" transform="translate(-358.385 -611.036)" fill="#0055a3"/>
        </g>
      </g>
    </g>
    <line id="Line_8" data-name="Line 8" y1="30" x2="30" transform="translate(697.5 997.5)" fill="none" stroke="#0055a3" stroke-linecap="round" stroke-width="6"/>
    <line id="Line_9" data-name="Line 9" x2="47" transform="translate(721.5 1077.5)" fill="none" stroke="#0055a3" stroke-linecap="round" stroke-width="6"/>
    <line id="Line_10" data-name="Line 10" x2="42" y2="16" transform="translate(700.5 1121.5)" fill="none" stroke="#0055a3" stroke-linecap="round" stroke-width="6"/>
    <g id="Group_92" data-name="Group 92" transform="translate(205.102 514.499)">
      <g id="Group_49" data-name="Group 49" transform="translate(528.976 444.809)">
        <g id="Group_47" data-name="Group 47" transform="translate(5.399)">
          <path id="Path_298" data-name="Path 298" d="M567.508,460.9a1.53,1.53,0,0,1-1.529-1.53v-10.8a1.53,1.53,0,1,1,3.06,0v10.8A1.531,1.531,0,0,1,567.508,460.9Z" transform="translate(-565.979 -447.045)" fill="#c9e0eb" fill-rule="evenodd"/>
        </g>
        <g id="Group_48" data-name="Group 48" transform="translate(0 5.397)">
          <path id="Path_299" data-name="Path 299" d="M572.349,456.062h-10.8a1.53,1.53,0,1,1,0-3.06h10.8a1.53,1.53,0,1,1,0,3.06Z" transform="translate(-560.02 -453.002)" fill="#c9e0eb" fill-rule="evenodd"/>
        </g>
      </g>
      <g id="Group_52" data-name="Group 52" transform="translate(553.455 528.193)">
        <g id="Group_50" data-name="Group 50" transform="translate(4.831)">
          <path id="Path_300" data-name="Path 300" d="M593.741,551.487a1.37,1.37,0,0,1-1.369-1.37v-9.662a1.369,1.369,0,1,1,2.739,0v9.662A1.37,1.37,0,0,1,593.741,551.487Z" transform="translate(-592.372 -539.085)" fill="#c9e0eb" fill-rule="evenodd"/>
        </g>
        <g id="Group_51" data-name="Group 51" transform="translate(0 4.83)">
          <path id="Path_301" data-name="Path 301" d="M598.074,547.155H588.41a1.369,1.369,0,1,1,0-2.739h9.664a1.369,1.369,0,1,1,0,2.739Z" transform="translate(-587.04 -544.416)" fill="#c9e0eb" fill-rule="evenodd"/>
        </g>
      </g>
      <g id="Group_55" data-name="Group 55" transform="translate(346.201 423.262)">
        <g id="Group_53" data-name="Group 53" transform="translate(4.831)">
          <path id="Path_302" data-name="Path 302" d="M364.975,435.663a1.369,1.369,0,0,1-1.369-1.369v-9.662a1.369,1.369,0,1,1,2.739,0v9.661A1.37,1.37,0,0,1,364.975,435.663Z" transform="translate(-363.606 -423.262)" fill="#c9e0eb" fill-rule="evenodd"/>
        </g>
        <g id="Group_54" data-name="Group 54" transform="translate(0 4.83)">
          <path id="Path_303" data-name="Path 303" d="M369.308,431.332h-9.665a1.369,1.369,0,1,1,0-2.739h9.665a1.369,1.369,0,0,1,0,2.739Z" transform="translate(-358.273 -428.593)" fill="#c9e0eb" fill-rule="evenodd"/>
        </g>
      </g>
      <g id="Group_58" data-name="Group 58" transform="translate(257.134 606.913)">
        <g id="Group_56" data-name="Group 56" transform="translate(4.832)">
          <path id="Path_304" data-name="Path 304" d="M266.663,638.377a1.369,1.369,0,0,1-1.369-1.369v-9.663a1.369,1.369,0,0,1,2.739,0v9.662A1.37,1.37,0,0,1,266.663,638.377Z" transform="translate(-265.294 -625.976)" fill="#c9e0eb" fill-rule="evenodd"/>
        </g>
        <g id="Group_57" data-name="Group 57" transform="translate(0 4.83)">
          <path id="Path_305" data-name="Path 305" d="M271,634.046h-9.665a1.369,1.369,0,1,1,0-2.739H271a1.369,1.369,0,1,1,0,2.739Z" transform="translate(-259.961 -631.307)" fill="#c9e0eb" fill-rule="evenodd"/>
        </g>
      </g>
      <g id="Group_62" data-name="Group 62" transform="translate(406.565 435.002)">
        <g id="Group_59" data-name="Group 59" transform="translate(14.059 15.409)">
          <path id="Path_306" data-name="Path 306" d="M443.671,454.853a1.625,1.625,0,1,1-1.625-1.624A1.626,1.626,0,0,1,443.671,454.853Z" transform="translate(-440.421 -453.229)" fill="#c9e0eb" fill-rule="evenodd"/>
        </g>
        <g id="Group_60" data-name="Group 60" transform="translate(33.189)">
          <path id="Path_307" data-name="Path 307" d="M466.723,438.815a2.593,2.593,0,1,1-2.593-2.594A2.594,2.594,0,0,1,466.723,438.815Z" transform="translate(-461.537 -436.221)" fill="#c9e0eb" fill-rule="evenodd"/>
        </g>
        <g id="Group_61" data-name="Group 61">
          <path id="Path_308" data-name="Path 308" d="M430.089,438.815a2.593,2.593,0,1,1-2.593-2.594A2.593,2.593,0,0,1,430.089,438.815Z" transform="translate(-424.903 -436.221)" fill="#c9e0eb" fill-rule="evenodd"/>
        </g>
      </g>
      <g id="Group_66" data-name="Group 66" transform="translate(592.614 603.722)">
        <g id="Group_63" data-name="Group 63" transform="translate(0 16.973)">
          <path id="Path_309" data-name="Path 309" d="M632.254,644.4a1.625,1.625,0,1,1,1.218-1.949A1.624,1.624,0,0,1,632.254,644.4Z" transform="translate(-630.263 -641.189)" fill="#c9e0eb" fill-rule="evenodd"/>
        </g>
        <g id="Group_64" data-name="Group 64" transform="translate(17.624 32.337)">
          <path id="Path_310" data-name="Path 310" d="M652.894,663.268a2.593,2.593,0,1,1,1.943-3.11A2.593,2.593,0,0,1,652.894,663.268Z" transform="translate(-649.717 -658.148)" fill="#c9e0eb" fill-rule="evenodd"/>
        </g>
        <g id="Group_65" data-name="Group 65" transform="translate(10.154)">
          <path id="Path_311" data-name="Path 311" d="M644.649,627.575a2.593,2.593,0,1,1,1.943-3.11A2.594,2.594,0,0,1,644.649,627.575Z" transform="translate(-641.472 -622.454)" fill="#c9e0eb" fill-rule="evenodd"/>
        </g>
      </g>
      <g id="Group_70" data-name="Group 70" transform="translate(568.914 488.735)">
        <g id="Group_67" data-name="Group 67" transform="translate(0 16.972)">
          <path id="Path_312" data-name="Path 312" d="M606.094,517.474a1.625,1.625,0,1,1,1.218-1.949A1.625,1.625,0,0,1,606.094,517.474Z" transform="translate(-604.104 -514.265)" fill="#c9e0eb" fill-rule="evenodd"/>
        </g>
        <g id="Group_68" data-name="Group 68" transform="translate(17.624 32.337)">
          <path id="Path_313" data-name="Path 313" d="M626.734,536.345a2.593,2.593,0,1,1,1.943-3.109A2.594,2.594,0,0,1,626.734,536.345Z" transform="translate(-623.557 -531.225)" fill="#c9e0eb" fill-rule="evenodd"/>
        </g>
        <g id="Group_69" data-name="Group 69" transform="translate(10.154)">
          <path id="Path_314" data-name="Path 314" d="M618.489,500.651a2.593,2.593,0,1,1,1.943-3.11A2.592,2.592,0,0,1,618.489,500.651Z" transform="translate(-615.312 -495.531)" fill="#c9e0eb" fill-rule="evenodd"/>
        </g>
      </g>
      <g id="Group_73" data-name="Group 73" transform="translate(284.754 511.268)">
        <g id="Group_71" data-name="Group 71" transform="translate(4.832)">
          <path id="Path_315" data-name="Path 315" d="M297.15,532.8a1.37,1.37,0,0,1-1.369-1.37v-9.662a1.369,1.369,0,1,1,2.739,0v9.662A1.37,1.37,0,0,1,297.15,532.8Z" transform="translate(-295.781 -520.403)" fill="#c9e0eb" fill-rule="evenodd"/>
        </g>
        <g id="Group_72" data-name="Group 72" transform="translate(0 4.83)">
          <path id="Path_316" data-name="Path 316" d="M301.483,528.474h-9.665a1.37,1.37,0,1,1,0-2.74h9.665a1.37,1.37,0,1,1,0,2.74Z" transform="translate(-290.448 -525.734)" fill="#c9e0eb" fill-rule="evenodd"/>
        </g>
      </g>
      <g id="Group_78" data-name="Group 78" transform="translate(250.866 502.062)">
        <g id="Group_74" data-name="Group 74" transform="translate(66.399 15.408)">
          <path id="Path_317" data-name="Path 317" d="M329.583,528.872a1.625,1.625,0,1,1-1.624-1.624A1.625,1.625,0,0,1,329.583,528.872Z" transform="translate(-326.333 -527.248)" fill="#c9e0eb" fill-rule="evenodd"/>
        </g>
        <g id="Group_75" data-name="Group 75" transform="translate(85.529)">
          <path id="Path_318" data-name="Path 318" d="M352.635,512.834a2.593,2.593,0,1,1-2.593-2.593A2.594,2.594,0,0,1,352.635,512.834Z" transform="translate(-347.449 -510.241)" fill="#c9e0eb" fill-rule="evenodd"/>
        </g>
        <g id="Group_76" data-name="Group 76" transform="translate(52.34)">
          <path id="Path_319" data-name="Path 319" d="M316,512.834a2.593,2.593,0,1,1-2.593-2.593A2.592,2.592,0,0,1,316,512.834Z" transform="translate(-310.815 -510.241)" fill="#c9e0eb" fill-rule="evenodd"/>
        </g>
        <g id="Group_77" data-name="Group 77" transform="translate(0 79.4)">
          <path id="Path_320" data-name="Path 320" d="M258.229,600.476a2.593,2.593,0,1,1-2.594-2.593A2.594,2.594,0,0,1,258.229,600.476Z" transform="translate(-253.042 -597.883)" fill="#c9e0eb" fill-rule="evenodd"/>
        </g>
      </g>
      <g id="Group_82" data-name="Group 82" transform="translate(232.279 634.069)">
        <g id="Group_79" data-name="Group 79" transform="translate(20.061 24.492)">
          <path id="Path_321" data-name="Path 321" d="M257.6,683.65a1.625,1.625,0,1,1-2.27-.351A1.625,1.625,0,0,1,257.6,683.65Z" transform="translate(-254.669 -682.985)" fill="#c9e0eb" fill-rule="evenodd"/>
        </g>
        <g id="Group_80" data-name="Group 80" transform="translate(26.779)">
          <path id="Path_322" data-name="Path 322" d="M266.771,657.013a2.593,2.593,0,1,1-3.624-.561A2.594,2.594,0,0,1,266.771,657.013Z" transform="translate(-262.085 -655.951)" fill="#c9e0eb" fill-rule="evenodd"/>
        </g>
        <g id="Group_81" data-name="Group 81" transform="translate(0 19.605)">
          <path id="Path_323" data-name="Path 323" d="M237.212,678.653a2.593,2.593,0,1,1-3.624-.561A2.593,2.593,0,0,1,237.212,678.653Z" transform="translate(-232.526 -677.591)" fill="#c9e0eb" fill-rule="evenodd"/>
        </g>
      </g>
      <g id="Group_85" data-name="Group 85" transform="translate(304.292 579.323)">
        <g id="Group_83" data-name="Group 83" transform="translate(4.831)">
          <path id="Path_324" data-name="Path 324" d="M318.716,607.923a1.369,1.369,0,0,1-1.369-1.369v-9.663a1.369,1.369,0,0,1,2.739,0v9.662A1.37,1.37,0,0,1,318.716,607.923Z" transform="translate(-317.347 -595.522)" fill="#c9e0eb" fill-rule="evenodd"/>
        </g>
        <g id="Group_84" data-name="Group 84" transform="translate(0 4.83)">
          <path id="Path_325" data-name="Path 325" d="M323.049,603.592h-9.665a1.369,1.369,0,1,1,0-2.739h9.665a1.369,1.369,0,1,1,0,2.739Z" transform="translate(-312.014 -600.853)" fill="#c9e0eb" fill-rule="evenodd"/>
        </g>
      </g>
      <g id="Group_88" data-name="Group 88" transform="translate(618.607 559.794)">
        <g id="Group_86" data-name="Group 86" transform="translate(4.832)">
          <path id="Path_326" data-name="Path 326" d="M665.657,586.367A1.369,1.369,0,0,1,664.288,585v-9.662a1.369,1.369,0,1,1,2.739,0V585A1.369,1.369,0,0,1,665.657,586.367Z" transform="translate(-664.288 -573.966)" fill="#c9e0eb" fill-rule="evenodd"/>
        </g>
        <g id="Group_87" data-name="Group 87" transform="translate(0 4.83)">
          <path id="Path_327" data-name="Path 327" d="M669.99,582.037h-9.665a1.37,1.37,0,1,1,0-2.74h9.665a1.37,1.37,0,1,1,0,2.74Z" transform="translate(-658.955 -579.297)" fill="#c9e0eb" fill-rule="evenodd"/>
        </g>
      </g>
      <g id="Group_91" data-name="Group 91" transform="translate(229.898 542.591)">
        <g id="Group_89" data-name="Group 89" transform="translate(4.832)">
          <path id="Path_328" data-name="Path 328" d="M236.6,567.378a1.369,1.369,0,0,1-1.369-1.369v-9.662a1.369,1.369,0,1,1,2.739,0v9.661A1.37,1.37,0,0,1,236.6,567.378Z" transform="translate(-235.231 -554.977)" fill="#c9e0eb" fill-rule="evenodd"/>
        </g>
        <g id="Group_90" data-name="Group 90" transform="translate(0 4.83)">
          <path id="Path_329" data-name="Path 329" d="M240.933,563.047h-9.665a1.369,1.369,0,1,1,0-2.739h9.665a1.369,1.369,0,1,1,0,2.739Z" transform="translate(-229.898 -560.308)" fill="#c9e0eb" fill-rule="evenodd"/>
        </g>
      </g>
    </g>
    <g id="Group_161" data-name="Group 161">
      <g id="Ellipse_47" data-name="Ellipse 47" transform="translate(1029 785)" fill="none" stroke="#0055a3" stroke-linecap="round" stroke-width="3" stroke-dasharray="3 6">
        <circle cx="21.5" cy="21.5" r="21.5" stroke="none"/>
        <circle cx="21.5" cy="21.5" r="20" fill="none"/>
      </g>
      <line id="Line_30" data-name="Line 30" x1="78" transform="translate(950.5 806.5)" fill="none" stroke="#0055a3" stroke-linecap="round" stroke-width="3" stroke-dasharray="3 6"/>
      <line id="Line_31" data-name="Line 31" y2="189" transform="translate(921.5 849.5)" fill="none" stroke="#0055a3" stroke-linecap="round" stroke-width="3" stroke-dasharray="3 6"/>
      <path id="Path_416" data-name="Path 416" d="M-1260.65,417.5s-32.35-2.464-32.35,37" transform="translate(2215 389)" fill="none" stroke="#0055a3" stroke-linecap="round" stroke-width="3" stroke-dasharray="3 6"/>
      <line id="Line_32" data-name="Line 32" x2="38.5" transform="translate(854.5 1075.47)" fill="none" stroke="#0055a3" stroke-linecap="round" stroke-width="3" stroke-dasharray="3 6"/>
      <path id="Path_417" data-name="Path 417" d="M-1260.65,417.5s-32.35-2.464-32.35,37" transform="translate(-371.5 1492.97) rotate(180)" fill="none" stroke="#0055a3" stroke-linecap="round" stroke-width="3" stroke-dasharray="3 6"/>
      <g id="Ellipse_48" data-name="Ellipse 48" transform="translate(1029 785)" fill="none" stroke="#0055a3" stroke-linecap="round" stroke-width="3" stroke-dasharray="3 6">
        <circle cx="21.5" cy="21.5" r="21.5" stroke="none"/>
        <circle cx="21.5" cy="21.5" r="20" fill="none"/>
      </g>
      <line id="Line_33" data-name="Line 33" x1="78" transform="translate(950.5 806.5)" fill="none" stroke="#0055a3" stroke-linecap="round" stroke-width="3" stroke-dasharray="3 6"/>
      <line id="Line_34" data-name="Line 34" y2="189" transform="translate(921.5 849.5)" fill="none" stroke="#0055a3" stroke-linecap="round" stroke-width="3" stroke-dasharray="3 6"/>
      <path id="Path_418" data-name="Path 418" d="M-1260.65,417.5s-32.35-2.464-32.35,37" transform="translate(2215 389)" fill="none" stroke="#0055a3" stroke-linecap="round" stroke-width="3" stroke-dasharray="3 6"/>
      <line id="Line_35" data-name="Line 35" x2="38.5" transform="translate(854.5 1075.47)" fill="none" stroke="#0055a3" stroke-linecap="round" stroke-width="3" stroke-dasharray="3 6"/>
      <path id="Path_419" data-name="Path 419" d="M-1260.65,417.5s-32.35-2.464-32.35,37" transform="translate(-371.5 1492.97) rotate(180)" fill="none" stroke="#0055a3" stroke-linecap="round" stroke-width="3" stroke-dasharray="3 6"/>
    </g>
  </g>
</svg>
