<svg xmlns="http://www.w3.org/2000/svg" width="693" height="450" viewBox="0 0 693 450">
  <g id="Group_193" data-name="Group 193" transform="translate(-811 -1394)">
    <g id="Ellipse_39" data-name="Ellipse 39" transform="translate(1067 1394)" fill="none" stroke="#0055a3" stroke-linecap="round" stroke-width="3" stroke-dasharray="3 6">
      <circle cx="218.5" cy="218.5" r="218.5" stroke="none"/>
      <circle cx="218.5" cy="218.5" r="217" fill="none"/>
    </g>
    <g id="Group_134" data-name="Group 134" transform="translate(1080 1484)" opacity="0.47">
      <path id="Path_331" data-name="Path 331" d="M441.278,291.1H156.6c-34.207,0-61.942-27.067-61.942-60.456s27.735-60.456,61.942-60.456a62.763,62.763,0,0,1,33.942,9.882A59.964,59.964,0,0,1,290.16,121.6a49.062,49.062,0,1,1,92.885,29.86q1.478-.1,2.981-.1a43.882,43.882,0,0,1,41.964,56.618A42.621,42.621,0,1,1,441.278,291.1Z" transform="translate(-94.657 -82.478)" fill="#c9e0eb" fill-rule="evenodd"/>
    </g>
    <g id="Group_132" data-name="Group 132" transform="translate(478.256 861.019)">
      <g id="Group_142" data-name="Group 142" transform="translate(1396.928 1365.387) rotate(180)">
        <g id="Group_136" data-name="Group 136" transform="translate(450.079 496.108)">
          <g id="Group_135" data-name="Group 135">
            <circle id="Ellipse_44" data-name="Ellipse 44" cx="18.517" cy="18.517" r="18.517" transform="translate(60.548 63.61) rotate(-77.86)" fill="#fafbfc" stroke="#0055a3" stroke-miterlimit="10" stroke-width="6"/>
            <path id="Path_384" data-name="Path 384" d="M522.551,492.015v78.977a18.348,18.348,0,0,0-18.341-18.341H471.236a21.147,21.147,0,0,1,0-42.293H504.21A18.338,18.338,0,0,0,522.551,492.015Z" transform="translate(-450.079 -482.103)" fill="#fafbfc" stroke="#0055a3" stroke-miterlimit="10" stroke-width="6"/>
            <line id="Line_11" data-name="Line 11" y2="41.144" transform="translate(34.194 28.254)" fill="none" stroke="#0055a3" stroke-miterlimit="10" stroke-width="6"/>
            <path id="Path_385" data-name="Path 385" d="M488.953,584.793h0a5.051,5.051,0,0,1-5.038-5.036V492.423a5.051,5.051,0,0,1,5.038-5.036h0a5.051,5.051,0,0,1,5.036,5.036v87.334A5.05,5.05,0,0,1,488.953,584.793Z" transform="translate(-411.443 -487.387)" fill="#fafbfc" stroke="#0055a3" stroke-miterlimit="10" stroke-width="6"/>
          </g>
        </g>
        <g id="Group_141" data-name="Group 141" transform="translate(555.922 479.749)">
          <g id="Group_137" data-name="Group 137">
            <line id="Line_12" data-name="Line 12" y1="12.308" x2="16.164" transform="translate(37.869)" fill="#fafbfc" stroke="#0055a3" stroke-linecap="round" stroke-linejoin="round" stroke-width="6"/>
            <line id="Line_13" data-name="Line 13" y1="17.961" x2="23.588" transform="translate(0 23.182)" fill="#fafbfc" stroke="#0055a3" stroke-linecap="round" stroke-linejoin="round" stroke-width="6"/>
          </g>
          <g id="Group_138" data-name="Group 138" transform="translate(4.807 25.797)">
            <line id="Line_14" data-name="Line 14" x1="18.123" y2="9.182" transform="translate(0 21.511)" fill="#fafbfc" stroke="#0055a3" stroke-linecap="round" stroke-linejoin="round" stroke-width="6"/>
            <line id="Line_15" data-name="Line 15" x1="26.448" y2="13.399" transform="translate(34.135)" fill="#fafbfc" stroke="#0055a3" stroke-linecap="round" stroke-linejoin="round" stroke-width="6"/>
          </g>
          <g id="Group_139" data-name="Group 139" transform="translate(0 88.796)">
            <line id="Line_16" data-name="Line 16" x2="16.164" y2="12.308" transform="translate(37.869 28.836)" fill="#fafbfc" stroke="#0055a3" stroke-linecap="round" stroke-linejoin="round" stroke-width="6"/>
            <line id="Line_17" data-name="Line 17" x2="23.588" y2="17.962" stroke-width="6" stroke="#0055a3" stroke-linecap="round" stroke-linejoin="round" fill="#fafbfc"/>
          </g>
          <g id="Group_140" data-name="Group 140" transform="translate(4.807 73.449)">
            <line id="Line_18" data-name="Line 18" x1="18.123" y1="9.182" stroke-width="6" stroke="#0055a3" stroke-linecap="round" stroke-linejoin="round" fill="#fafbfc"/>
            <line id="Line_19" data-name="Line 19" x1="26.448" y1="13.399" transform="translate(34.135 17.294)" fill="#fafbfc" stroke="#0055a3" stroke-linecap="round" stroke-linejoin="round" stroke-width="6"/>
          </g>
          <line id="Line_20" data-name="Line 20" x2="10.906" transform="translate(16.359 65.062)" fill="none" stroke="#0055a3" stroke-linecap="round" stroke-linejoin="round" stroke-width="6"/>
          <line id="Line_21" data-name="Line 21" x2="23.022" transform="translate(38.942 65.062)" fill="none" stroke="#0055a3" stroke-linecap="round" stroke-linejoin="round" stroke-width="6"/>
          <line id="Line_22" data-name="Line 22" x2="9.418" transform="translate(75.843 65.185)" fill="none" stroke="#0055a3" stroke-linecap="round" stroke-linejoin="round" stroke-width="6"/>
        </g>
      </g>
      <g id="Group_143" data-name="Group 143" transform="translate(713 643.466)">
        <g id="Group_119" data-name="Group 119" transform="translate(3.152 3.153)">
          <g id="Group_118" data-name="Group 118">
            <path id="Path_375" data-name="Path 375" d="M756.784,733.273l16.7-11.486v52.481l-38.228-26.157.06-.083Z" transform="translate(-682.833 -683.619)" fill="#84d800"/>
            <path id="Path_376" data-name="Path 376" d="M765.611,725.324l-16.7,11.486V715.651Z" transform="translate(-674.962 -687.156)" fill="#fff"/>
            <path id="Path_377" data-name="Path 377" d="M792.649,766.418H702l38.228-26.157,7.1-4.854,7.1,4.854Z" transform="translate(-702 -675.769)" fill="#84d800"/>
            <path id="Path_378" data-name="Path 378" d="M769.845,726.069v21.159l-21.469,14.754-.06.083-7.1-4.854-7.1,4.854-.059-.083-21.47-14.754V697.574h57.252Z" transform="translate(-695.894 -697.574)" fill="#fff"/>
            <path id="Path_379" data-name="Path 379" d="M718.7,733.273l21.47,14.754.059.083L702,774.268V721.787Z" transform="translate(-702 -683.619)" fill="#84d800"/>
            <path id="Path_380" data-name="Path 380" d="M718.7,715.651V736.81L702,725.324Z" transform="translate(-702 -687.156)" fill="#fff"/>
          </g>
        </g>
        <g id="Group_130" data-name="Group 130">
          <g id="Group_120" data-name="Group 120" transform="translate(0 28.92)">
            <path id="Path_381" data-name="Path 381" d="M793.8,781.955a3.145,3.145,0,0,1-1.78-.552l-43.544-29.793L704.932,781.4A3.152,3.152,0,0,1,700,778.8V726.321a3.152,3.152,0,0,1,1.572-2.727l16.7-9.674,3.161,5.456-15.125,8.763v44.687L746.7,745.188a3.152,3.152,0,0,1,3.561,0l40.391,27.637V728.139l-15.125-8.763,3.161-5.456,16.7,9.674a3.15,3.15,0,0,1,1.573,2.727V778.8a3.153,3.153,0,0,1-3.153,3.153Z" transform="translate(-700 -713.92)" fill="#0055a3"/>
          </g>
          <g id="Group_121" data-name="Group 121" transform="translate(16.698)">
            <path id="Path_382" data-name="Path 382" d="M774.15,748.822h-6.305V701.879H716.9v46.942h-6.305V698.727a3.153,3.153,0,0,1,3.153-3.153H771a3.153,3.153,0,0,1,3.153,3.153Z" transform="translate(-710.593 -695.574)" fill="#0055a3"/>
          </g>
          <g id="Group_122" data-name="Group 122" transform="translate(3.152 90.649)">
            <rect id="Rectangle_1112" data-name="Rectangle 1112" width="90.649" height="6.305" fill="#0055a3"/>
          </g>
          <g id="Group_123" data-name="Group 123" transform="translate(1.366 38.723)">
            <rect id="Rectangle_1113" data-name="Rectangle 1113" width="6.306" height="46.318" transform="translate(0 5.196) rotate(-55.491)" fill="#0055a3"/>
          </g>
          <g id="Group_124" data-name="Group 124" transform="translate(53.845 38.726)">
            <rect id="Rectangle_1114" data-name="Rectangle 1114" width="46.318" height="6.306" transform="matrix(0.824, -0.566, 0.566, 0.824, 0, 26.233)" fill="#0055a3"/>
          </g>
          <g id="Group_125" data-name="Group 125" transform="translate(29.393 11.928)">
            <rect id="Rectangle_1115" data-name="Rectangle 1115" width="38.168" height="6.305" fill="#0055a3"/>
          </g>
          <g id="Group_126" data-name="Group 126" transform="translate(29.393 21.47)">
            <rect id="Rectangle_1116" data-name="Rectangle 1116" width="38.168" height="6.305" fill="#0055a3"/>
          </g>
          <g id="Group_127" data-name="Group 127" transform="translate(29.393 31.011)">
            <rect id="Rectangle_1117" data-name="Rectangle 1117" width="38.168" height="6.305" fill="#0055a3"/>
          </g>
          <g id="Group_128" data-name="Group 128" transform="translate(29.393 40.554)">
            <rect id="Rectangle_1118" data-name="Rectangle 1118" width="28.626" height="6.305" fill="#0055a3"/>
          </g>
          <g id="Group_129" data-name="Group 129" transform="translate(29.393 50.096)">
            <rect id="Rectangle_1119" data-name="Rectangle 1119" width="28.626" height="6.305" fill="#0055a3"/>
          </g>
        </g>
      </g>
    </g>
    <g id="Group_133" data-name="Group 133" transform="translate(860.102 1049.499)">
      <g id="Group_49" data-name="Group 49" transform="translate(528.976 444.809)">
        <g id="Group_47" data-name="Group 47" transform="translate(5.399)">
          <path id="Path_298" data-name="Path 298" d="M567.508,460.9a1.53,1.53,0,0,1-1.529-1.53v-10.8a1.53,1.53,0,1,1,3.06,0v10.8A1.531,1.531,0,0,1,567.508,460.9Z" transform="translate(-565.979 -447.045)" fill="#c9e0eb" fill-rule="evenodd"/>
        </g>
        <g id="Group_48" data-name="Group 48" transform="translate(0 5.397)">
          <path id="Path_299" data-name="Path 299" d="M572.349,456.062h-10.8a1.53,1.53,0,1,1,0-3.06h10.8a1.53,1.53,0,1,1,0,3.06Z" transform="translate(-560.02 -453.002)" fill="#c9e0eb" fill-rule="evenodd"/>
        </g>
      </g>
      <g id="Group_52" data-name="Group 52" transform="translate(553.455 528.193)">
        <g id="Group_50" data-name="Group 50" transform="translate(4.831)">
          <path id="Path_300" data-name="Path 300" d="M593.741,551.487a1.37,1.37,0,0,1-1.369-1.37v-9.662a1.369,1.369,0,1,1,2.739,0v9.662A1.37,1.37,0,0,1,593.741,551.487Z" transform="translate(-592.372 -539.085)" fill="#c9e0eb" fill-rule="evenodd"/>
        </g>
        <g id="Group_51" data-name="Group 51" transform="translate(0 4.83)">
          <path id="Path_301" data-name="Path 301" d="M598.074,547.155H588.41a1.369,1.369,0,1,1,0-2.739h9.664a1.369,1.369,0,1,1,0,2.739Z" transform="translate(-587.04 -544.416)" fill="#c9e0eb" fill-rule="evenodd"/>
        </g>
      </g>
      <g id="Group_55" data-name="Group 55" transform="translate(346.201 423.262)">
        <g id="Group_53" data-name="Group 53" transform="translate(4.831)">
          <path id="Path_302" data-name="Path 302" d="M364.975,435.663a1.369,1.369,0,0,1-1.369-1.369v-9.662a1.369,1.369,0,1,1,2.739,0v9.661A1.37,1.37,0,0,1,364.975,435.663Z" transform="translate(-363.606 -423.262)" fill="#c9e0eb" fill-rule="evenodd"/>
        </g>
        <g id="Group_54" data-name="Group 54" transform="translate(0 4.83)">
          <path id="Path_303" data-name="Path 303" d="M369.308,431.332h-9.665a1.369,1.369,0,1,1,0-2.739h9.665a1.369,1.369,0,0,1,0,2.739Z" transform="translate(-358.273 -428.593)" fill="#c9e0eb" fill-rule="evenodd"/>
        </g>
      </g>
      <g id="Group_58" data-name="Group 58" transform="translate(257.134 606.913)">
        <g id="Group_56" data-name="Group 56" transform="translate(4.832)">
          <path id="Path_304" data-name="Path 304" d="M266.663,638.377a1.369,1.369,0,0,1-1.369-1.369v-9.663a1.369,1.369,0,0,1,2.739,0v9.662A1.37,1.37,0,0,1,266.663,638.377Z" transform="translate(-265.294 -625.976)" fill="#c9e0eb" fill-rule="evenodd"/>
        </g>
        <g id="Group_57" data-name="Group 57" transform="translate(0 4.83)">
          <path id="Path_305" data-name="Path 305" d="M271,634.046h-9.665a1.369,1.369,0,1,1,0-2.739H271a1.369,1.369,0,1,1,0,2.739Z" transform="translate(-259.961 -631.307)" fill="#c9e0eb" fill-rule="evenodd"/>
        </g>
      </g>
      <g id="Group_62" data-name="Group 62" transform="translate(406.565 435.002)">
        <g id="Group_59" data-name="Group 59" transform="translate(14.059 15.409)">
          <path id="Path_306" data-name="Path 306" d="M443.671,454.853a1.625,1.625,0,1,1-1.625-1.624A1.626,1.626,0,0,1,443.671,454.853Z" transform="translate(-440.421 -453.229)" fill="#c9e0eb" fill-rule="evenodd"/>
        </g>
        <g id="Group_60" data-name="Group 60" transform="translate(33.189)">
          <path id="Path_307" data-name="Path 307" d="M466.723,438.815a2.593,2.593,0,1,1-2.593-2.594A2.594,2.594,0,0,1,466.723,438.815Z" transform="translate(-461.537 -436.221)" fill="#c9e0eb" fill-rule="evenodd"/>
        </g>
        <g id="Group_61" data-name="Group 61">
          <path id="Path_308" data-name="Path 308" d="M430.089,438.815a2.593,2.593,0,1,1-2.593-2.594A2.593,2.593,0,0,1,430.089,438.815Z" transform="translate(-424.903 -436.221)" fill="#c9e0eb" fill-rule="evenodd"/>
        </g>
      </g>
      <g id="Group_66" data-name="Group 66" transform="translate(592.614 603.722)">
        <g id="Group_63" data-name="Group 63" transform="translate(0 16.973)">
          <path id="Path_309" data-name="Path 309" d="M632.254,644.4a1.625,1.625,0,1,1,1.218-1.949A1.624,1.624,0,0,1,632.254,644.4Z" transform="translate(-630.263 -641.189)" fill="#c9e0eb" fill-rule="evenodd"/>
        </g>
        <g id="Group_64" data-name="Group 64" transform="translate(17.624 32.337)">
          <path id="Path_310" data-name="Path 310" d="M652.894,663.268a2.593,2.593,0,1,1,1.943-3.11A2.593,2.593,0,0,1,652.894,663.268Z" transform="translate(-649.717 -658.148)" fill="#c9e0eb" fill-rule="evenodd"/>
        </g>
        <g id="Group_65" data-name="Group 65" transform="translate(10.154)">
          <path id="Path_311" data-name="Path 311" d="M644.649,627.575a2.593,2.593,0,1,1,1.943-3.11A2.594,2.594,0,0,1,644.649,627.575Z" transform="translate(-641.472 -622.454)" fill="#c9e0eb" fill-rule="evenodd"/>
        </g>
      </g>
      <g id="Group_70" data-name="Group 70" transform="translate(568.914 488.735)">
        <g id="Group_67" data-name="Group 67" transform="translate(0 16.972)">
          <path id="Path_312" data-name="Path 312" d="M606.094,517.474a1.625,1.625,0,1,1,1.218-1.949A1.625,1.625,0,0,1,606.094,517.474Z" transform="translate(-604.104 -514.265)" fill="#c9e0eb" fill-rule="evenodd"/>
        </g>
        <g id="Group_68" data-name="Group 68" transform="translate(17.624 32.337)">
          <path id="Path_313" data-name="Path 313" d="M626.734,536.345a2.593,2.593,0,1,1,1.943-3.109A2.594,2.594,0,0,1,626.734,536.345Z" transform="translate(-623.557 -531.225)" fill="#c9e0eb" fill-rule="evenodd"/>
        </g>
        <g id="Group_69" data-name="Group 69" transform="translate(10.154)">
          <path id="Path_314" data-name="Path 314" d="M618.489,500.651a2.593,2.593,0,1,1,1.943-3.11A2.592,2.592,0,0,1,618.489,500.651Z" transform="translate(-615.312 -495.531)" fill="#c9e0eb" fill-rule="evenodd"/>
        </g>
      </g>
      <g id="Group_73" data-name="Group 73" transform="translate(284.754 511.268)">
        <g id="Group_71" data-name="Group 71" transform="translate(4.832)">
          <path id="Path_315" data-name="Path 315" d="M297.15,532.8a1.37,1.37,0,0,1-1.369-1.37v-9.662a1.369,1.369,0,1,1,2.739,0v9.662A1.37,1.37,0,0,1,297.15,532.8Z" transform="translate(-295.781 -520.403)" fill="#c9e0eb" fill-rule="evenodd"/>
        </g>
        <g id="Group_72" data-name="Group 72" transform="translate(0 4.83)">
          <path id="Path_316" data-name="Path 316" d="M301.483,528.474h-9.665a1.37,1.37,0,1,1,0-2.74h9.665a1.37,1.37,0,1,1,0,2.74Z" transform="translate(-290.448 -525.734)" fill="#c9e0eb" fill-rule="evenodd"/>
        </g>
      </g>
      <g id="Group_78" data-name="Group 78" transform="translate(250.866 502.062)">
        <g id="Group_74" data-name="Group 74" transform="translate(66.399 15.408)">
          <path id="Path_317" data-name="Path 317" d="M329.583,528.872a1.625,1.625,0,1,1-1.624-1.624A1.625,1.625,0,0,1,329.583,528.872Z" transform="translate(-326.333 -527.248)" fill="#c9e0eb" fill-rule="evenodd"/>
        </g>
        <g id="Group_75" data-name="Group 75" transform="translate(85.529)">
          <path id="Path_318" data-name="Path 318" d="M352.635,512.834a2.593,2.593,0,1,1-2.593-2.593A2.594,2.594,0,0,1,352.635,512.834Z" transform="translate(-347.449 -510.241)" fill="#c9e0eb" fill-rule="evenodd"/>
        </g>
        <g id="Group_76" data-name="Group 76" transform="translate(52.34)">
          <path id="Path_319" data-name="Path 319" d="M316,512.834a2.593,2.593,0,1,1-2.593-2.593A2.592,2.592,0,0,1,316,512.834Z" transform="translate(-310.815 -510.241)" fill="#c9e0eb" fill-rule="evenodd"/>
        </g>
        <g id="Group_77" data-name="Group 77" transform="translate(0 79.4)">
          <path id="Path_320" data-name="Path 320" d="M258.229,600.476a2.593,2.593,0,1,1-2.594-2.593A2.594,2.594,0,0,1,258.229,600.476Z" transform="translate(-253.042 -597.883)" fill="#c9e0eb" fill-rule="evenodd"/>
        </g>
      </g>
      <g id="Group_82" data-name="Group 82" transform="translate(232.279 634.069)">
        <g id="Group_79" data-name="Group 79" transform="translate(20.061 24.492)">
          <path id="Path_321" data-name="Path 321" d="M257.6,683.65a1.625,1.625,0,1,1-2.27-.351A1.625,1.625,0,0,1,257.6,683.65Z" transform="translate(-254.669 -682.985)" fill="#c9e0eb" fill-rule="evenodd"/>
        </g>
        <g id="Group_80" data-name="Group 80" transform="translate(26.779)">
          <path id="Path_322" data-name="Path 322" d="M266.771,657.013a2.593,2.593,0,1,1-3.624-.561A2.594,2.594,0,0,1,266.771,657.013Z" transform="translate(-262.085 -655.951)" fill="#c9e0eb" fill-rule="evenodd"/>
        </g>
        <g id="Group_81" data-name="Group 81" transform="translate(0 19.605)">
          <path id="Path_323" data-name="Path 323" d="M237.212,678.653a2.593,2.593,0,1,1-3.624-.561A2.593,2.593,0,0,1,237.212,678.653Z" transform="translate(-232.526 -677.591)" fill="#c9e0eb" fill-rule="evenodd"/>
        </g>
      </g>
      <g id="Group_85" data-name="Group 85" transform="translate(304.292 579.323)">
        <g id="Group_83" data-name="Group 83" transform="translate(4.831)">
          <path id="Path_324" data-name="Path 324" d="M318.716,607.923a1.369,1.369,0,0,1-1.369-1.369v-9.663a1.369,1.369,0,0,1,2.739,0v9.662A1.37,1.37,0,0,1,318.716,607.923Z" transform="translate(-317.347 -595.522)" fill="#c9e0eb" fill-rule="evenodd"/>
        </g>
        <g id="Group_84" data-name="Group 84" transform="translate(0 4.83)">
          <path id="Path_325" data-name="Path 325" d="M323.049,603.592h-9.665a1.369,1.369,0,1,1,0-2.739h9.665a1.369,1.369,0,1,1,0,2.739Z" transform="translate(-312.014 -600.853)" fill="#c9e0eb" fill-rule="evenodd"/>
        </g>
      </g>
      <g id="Group_88" data-name="Group 88" transform="translate(618.607 559.794)">
        <g id="Group_86" data-name="Group 86" transform="translate(4.832)">
          <path id="Path_326" data-name="Path 326" d="M665.657,586.367A1.369,1.369,0,0,1,664.288,585v-9.662a1.369,1.369,0,1,1,2.739,0V585A1.369,1.369,0,0,1,665.657,586.367Z" transform="translate(-664.288 -573.966)" fill="#c9e0eb" fill-rule="evenodd"/>
        </g>
        <g id="Group_87" data-name="Group 87" transform="translate(0 4.83)">
          <path id="Path_327" data-name="Path 327" d="M669.99,582.037h-9.665a1.37,1.37,0,1,1,0-2.74h9.665a1.37,1.37,0,1,1,0,2.74Z" transform="translate(-658.955 -579.297)" fill="#c9e0eb" fill-rule="evenodd"/>
        </g>
      </g>
      <g id="Group_91" data-name="Group 91" transform="translate(229.898 542.591)">
        <g id="Group_89" data-name="Group 89" transform="translate(4.832)">
          <path id="Path_328" data-name="Path 328" d="M236.6,567.378a1.369,1.369,0,0,1-1.369-1.369v-9.662a1.369,1.369,0,1,1,2.739,0v9.661A1.37,1.37,0,0,1,236.6,567.378Z" transform="translate(-235.231 -554.977)" fill="#c9e0eb" fill-rule="evenodd"/>
        </g>
        <g id="Group_90" data-name="Group 90" transform="translate(0 4.83)">
          <path id="Path_329" data-name="Path 329" d="M240.933,563.047h-9.665a1.369,1.369,0,1,1,0-2.739h9.665a1.369,1.369,0,1,1,0,2.739Z" transform="translate(-229.898 -560.308)" fill="#c9e0eb" fill-rule="evenodd"/>
        </g>
      </g>
    </g>
    <g id="Ellipse_55" data-name="Ellipse 55" transform="translate(811 1801)" fill="none" stroke="#0055a3" stroke-linecap="round" stroke-width="3" stroke-dasharray="3 6">
      <circle cx="21.5" cy="21.5" r="21.5" stroke="none"/>
      <circle cx="21.5" cy="21.5" r="20" fill="none"/>
    </g>
    <line id="Line_47" data-name="Line 47" x1="78" transform="translate(989.5 1614.5)" fill="none" stroke="#0055a3" stroke-linecap="round" stroke-width="3" stroke-dasharray="3 6"/>
    <line id="Line_48" data-name="Line 48" y2="128" transform="translate(960.5 1657.5)" fill="none" stroke="#0055a3" stroke-linecap="round" stroke-width="3" stroke-dasharray="3 6"/>
    <path id="Path_424" data-name="Path 424" d="M-1260.65,417.5s-32.35-2.464-32.35,37" transform="translate(2254 1197)" fill="none" stroke="#0055a3" stroke-linecap="round" stroke-width="3" stroke-dasharray="3 6"/>
    <line id="Line_49" data-name="Line 49" x1="78" transform="translate(932 1822.47) rotate(180)" fill="none" stroke="#0055a3" stroke-linecap="round" stroke-width="3" stroke-dasharray="3 6"/>
    <path id="Path_425" data-name="Path 425" d="M-1260.65,417.5s-32.35-2.464-32.35,37" transform="translate(-332.5 2239.97) rotate(180)" fill="none" stroke="#0055a3" stroke-linecap="round" stroke-width="3" stroke-dasharray="3 6"/>
  </g>
</svg>
