<svg xmlns="http://www.w3.org/2000/svg" width="693" height="448" viewBox="0 0 693 448">
  <g id="Group_191" data-name="Group 191" transform="translate(-811 -199)">
    <ellipse id="Ellipse_42" data-name="Ellipse 42" cx="150.5" cy="12.5" rx="150.5" ry="12.5" transform="translate(1139 513)" fill="#e5f0f5"/>
    <g id="Ellipse_36" data-name="Ellipse 36" transform="translate(1067 199)" fill="none" stroke="#0055a3" stroke-linecap="round" stroke-width="3" stroke-dasharray="3 6">
      <circle cx="218.5" cy="218.5" r="218.5" stroke="none"/>
      <circle cx="218.5" cy="218.5" r="217" fill="none"/>
    </g>
    <g id="Ellipse_46" data-name="Ellipse 46" transform="translate(811 604)" fill="none" stroke="#0055a3" stroke-linecap="round" stroke-width="3" stroke-dasharray="3 6">
      <circle cx="21.5" cy="21.5" r="21.5" stroke="none"/>
      <circle cx="21.5" cy="21.5" r="20" fill="none"/>
    </g>
    <g id="Group_24" data-name="Group 24" transform="translate(637.5 -555.5)">
      <rect id="Rectangle_1101" data-name="Rectangle 1101" width="243" height="177" rx="7.063" transform="translate(526.5 876.5)" fill="none" stroke="#0055a3" stroke-width="6"/>
      <rect id="Rectangle_1102" data-name="Rectangle 1102" width="230" height="148" rx="3.455" transform="translate(534 884)" fill="#c9e0eb"/>
      <rect id="Rectangle_1103" data-name="Rectangle 1103" width="49" height="24" transform="translate(624 1054)" stroke-width="6" stroke="#0055a3" stroke-linecap="round" stroke-linejoin="round" fill="none"/>
      <rect id="Rectangle_1104" data-name="Rectangle 1104" width="78" height="9" transform="translate(609 1072)" fill="#0055a3"/>
    </g>
    <line id="Line_1" data-name="Line 1" x1="78" transform="translate(989.5 417.5)" fill="none" stroke="#0055a3" stroke-linecap="round" stroke-width="3" stroke-dasharray="3 6"/>
    <line id="Line_2" data-name="Line 2" y2="128" transform="translate(960.5 460.5)" fill="none" stroke="#0055a3" stroke-linecap="round" stroke-width="3" stroke-dasharray="3 6"/>
    <path id="Path_276" data-name="Path 276" d="M-1260.65,417.5s-32.35-2.464-32.35,37" transform="translate(2254)" fill="none" stroke="#0055a3" stroke-linecap="round" stroke-width="3" stroke-dasharray="3 6"/>
    <g id="Group_99" data-name="Group 99" transform="translate(1359.17 -603.342) rotate(42)">
      <circle id="Ellipse_40" data-name="Ellipse 40" cx="30.058" cy="30.058" r="30.058" transform="translate(576.915 652.086)" fill="#fff"/>
      <g id="Group_96" data-name="Group 96" transform="translate(573.823 648.994)">
        <path id="Path_332" data-name="Path 332" d="M606.973,715.294a33.15,33.15,0,1,1,33.148-33.148A33.186,33.186,0,0,1,606.973,715.294Zm0-60.118a26.968,26.968,0,1,0,26.967,26.97A27,27,0,0,0,606.973,655.176Z" transform="translate(-573.823 -648.994)" fill="#0055a3"/>
      </g>
      <circle id="Ellipse_41" data-name="Ellipse 41" cx="23.379" cy="23.379" r="23.379" transform="translate(576.475 669.376) rotate(-22.283)" fill="#c9e0eb"/>
      <g id="Group_97" data-name="Group 97" transform="translate(597.203 735.83)">
        <path id="Path_333" data-name="Path 333" d="M605.4,751.442H592.042a3.091,3.091,0,0,1-3.091-3.091V708.273a3.09,3.09,0,0,1,3.091-3.091H605.4a3.09,3.09,0,0,1,3.091,3.091v40.078A3.091,3.091,0,0,1,605.4,751.442Zm-10.268-6.182h7.177v-33.9h-7.177Z" transform="translate(-588.951 -705.182)" fill="#0055a3"/>
      </g>
      <g id="Group_98" data-name="Group 98" transform="translate(603.882 712.203)">
        <rect id="Rectangle_1107" data-name="Rectangle 1107" width="6.182" height="26.718" fill="#0055a3"/>
      </g>
      <rect id="Rectangle_1108" data-name="Rectangle 1108" width="3.34" height="33.398" transform="translate(603.633 742.261)" fill="#84d800"/>
      <rect id="Rectangle_1109" data-name="Rectangle 1109" width="3.34" height="33.398" transform="translate(606.973 742.261)" fill="#fff"/>
    </g>
    <g id="Group_100" data-name="Group 100" transform="translate(855.102 -148.501)">
      <g id="Group_49" data-name="Group 49" transform="translate(528.976 444.809)">
        <g id="Group_47" data-name="Group 47" transform="translate(5.399)">
          <path id="Path_298" data-name="Path 298" d="M567.508,460.9a1.53,1.53,0,0,1-1.529-1.53v-10.8a1.53,1.53,0,1,1,3.06,0v10.8A1.531,1.531,0,0,1,567.508,460.9Z" transform="translate(-565.979 -447.045)" fill="#c9e0eb" fill-rule="evenodd"/>
        </g>
        <g id="Group_48" data-name="Group 48" transform="translate(0 5.397)">
          <path id="Path_299" data-name="Path 299" d="M572.349,456.062h-10.8a1.53,1.53,0,1,1,0-3.06h10.8a1.53,1.53,0,1,1,0,3.06Z" transform="translate(-560.02 -453.002)" fill="#c9e0eb" fill-rule="evenodd"/>
        </g>
      </g>
      <g id="Group_52" data-name="Group 52" transform="translate(553.455 528.193)">
        <g id="Group_50" data-name="Group 50" transform="translate(4.831)">
          <path id="Path_300" data-name="Path 300" d="M593.741,551.487a1.37,1.37,0,0,1-1.369-1.37v-9.662a1.369,1.369,0,1,1,2.739,0v9.662A1.37,1.37,0,0,1,593.741,551.487Z" transform="translate(-592.372 -539.085)" fill="#c9e0eb" fill-rule="evenodd"/>
        </g>
        <g id="Group_51" data-name="Group 51" transform="translate(0 4.83)">
          <path id="Path_301" data-name="Path 301" d="M598.074,547.155H588.41a1.369,1.369,0,1,1,0-2.739h9.664a1.369,1.369,0,1,1,0,2.739Z" transform="translate(-587.04 -544.416)" fill="#c9e0eb" fill-rule="evenodd"/>
        </g>
      </g>
      <g id="Group_55" data-name="Group 55" transform="translate(346.201 423.262)">
        <g id="Group_53" data-name="Group 53" transform="translate(4.831)">
          <path id="Path_302" data-name="Path 302" d="M364.975,435.663a1.369,1.369,0,0,1-1.369-1.369v-9.662a1.369,1.369,0,1,1,2.739,0v9.661A1.37,1.37,0,0,1,364.975,435.663Z" transform="translate(-363.606 -423.262)" fill="#c9e0eb" fill-rule="evenodd"/>
        </g>
        <g id="Group_54" data-name="Group 54" transform="translate(0 4.83)">
          <path id="Path_303" data-name="Path 303" d="M369.308,431.332h-9.665a1.369,1.369,0,1,1,0-2.739h9.665a1.369,1.369,0,0,1,0,2.739Z" transform="translate(-358.273 -428.593)" fill="#c9e0eb" fill-rule="evenodd"/>
        </g>
      </g>
      <g id="Group_58" data-name="Group 58" transform="translate(257.134 606.913)">
        <g id="Group_56" data-name="Group 56" transform="translate(4.832)">
          <path id="Path_304" data-name="Path 304" d="M266.663,638.377a1.369,1.369,0,0,1-1.369-1.369v-9.663a1.369,1.369,0,0,1,2.739,0v9.662A1.37,1.37,0,0,1,266.663,638.377Z" transform="translate(-265.294 -625.976)" fill="#c9e0eb" fill-rule="evenodd"/>
        </g>
        <g id="Group_57" data-name="Group 57" transform="translate(0 4.83)">
          <path id="Path_305" data-name="Path 305" d="M271,634.046h-9.665a1.369,1.369,0,1,1,0-2.739H271a1.369,1.369,0,1,1,0,2.739Z" transform="translate(-259.961 -631.307)" fill="#c9e0eb" fill-rule="evenodd"/>
        </g>
      </g>
      <g id="Group_62" data-name="Group 62" transform="translate(406.565 435.002)">
        <g id="Group_59" data-name="Group 59" transform="translate(14.059 15.409)">
          <path id="Path_306" data-name="Path 306" d="M443.671,454.853a1.625,1.625,0,1,1-1.625-1.624A1.626,1.626,0,0,1,443.671,454.853Z" transform="translate(-440.421 -453.229)" fill="#c9e0eb" fill-rule="evenodd"/>
        </g>
        <g id="Group_60" data-name="Group 60" transform="translate(33.189)">
          <path id="Path_307" data-name="Path 307" d="M466.723,438.815a2.593,2.593,0,1,1-2.593-2.594A2.594,2.594,0,0,1,466.723,438.815Z" transform="translate(-461.537 -436.221)" fill="#c9e0eb" fill-rule="evenodd"/>
        </g>
        <g id="Group_61" data-name="Group 61">
          <path id="Path_308" data-name="Path 308" d="M430.089,438.815a2.593,2.593,0,1,1-2.593-2.594A2.593,2.593,0,0,1,430.089,438.815Z" transform="translate(-424.903 -436.221)" fill="#c9e0eb" fill-rule="evenodd"/>
        </g>
      </g>
      <g id="Group_66" data-name="Group 66" transform="translate(592.614 603.722)">
        <g id="Group_63" data-name="Group 63" transform="translate(0 16.973)">
          <path id="Path_309" data-name="Path 309" d="M632.254,644.4a1.625,1.625,0,1,1,1.218-1.949A1.624,1.624,0,0,1,632.254,644.4Z" transform="translate(-630.263 -641.189)" fill="#c9e0eb" fill-rule="evenodd"/>
        </g>
        <g id="Group_64" data-name="Group 64" transform="translate(17.624 32.337)">
          <path id="Path_310" data-name="Path 310" d="M652.894,663.268a2.593,2.593,0,1,1,1.943-3.11A2.593,2.593,0,0,1,652.894,663.268Z" transform="translate(-649.717 -658.148)" fill="#c9e0eb" fill-rule="evenodd"/>
        </g>
        <g id="Group_65" data-name="Group 65" transform="translate(10.154)">
          <path id="Path_311" data-name="Path 311" d="M644.649,627.575a2.593,2.593,0,1,1,1.943-3.11A2.594,2.594,0,0,1,644.649,627.575Z" transform="translate(-641.472 -622.454)" fill="#c9e0eb" fill-rule="evenodd"/>
        </g>
      </g>
      <g id="Group_70" data-name="Group 70" transform="translate(568.914 488.735)">
        <g id="Group_67" data-name="Group 67" transform="translate(0 16.972)">
          <path id="Path_312" data-name="Path 312" d="M606.094,517.474a1.625,1.625,0,1,1,1.218-1.949A1.625,1.625,0,0,1,606.094,517.474Z" transform="translate(-604.104 -514.265)" fill="#c9e0eb" fill-rule="evenodd"/>
        </g>
        <g id="Group_68" data-name="Group 68" transform="translate(17.624 32.337)">
          <path id="Path_313" data-name="Path 313" d="M626.734,536.345a2.593,2.593,0,1,1,1.943-3.109A2.594,2.594,0,0,1,626.734,536.345Z" transform="translate(-623.557 -531.225)" fill="#c9e0eb" fill-rule="evenodd"/>
        </g>
        <g id="Group_69" data-name="Group 69" transform="translate(10.154)">
          <path id="Path_314" data-name="Path 314" d="M618.489,500.651a2.593,2.593,0,1,1,1.943-3.11A2.592,2.592,0,0,1,618.489,500.651Z" transform="translate(-615.312 -495.531)" fill="#c9e0eb" fill-rule="evenodd"/>
        </g>
      </g>
      <g id="Group_73" data-name="Group 73" transform="translate(284.754 511.268)">
        <g id="Group_71" data-name="Group 71" transform="translate(4.832)">
          <path id="Path_315" data-name="Path 315" d="M297.15,532.8a1.37,1.37,0,0,1-1.369-1.37v-9.662a1.369,1.369,0,1,1,2.739,0v9.662A1.37,1.37,0,0,1,297.15,532.8Z" transform="translate(-295.781 -520.403)" fill="#c9e0eb" fill-rule="evenodd"/>
        </g>
        <g id="Group_72" data-name="Group 72" transform="translate(0 4.83)">
          <path id="Path_316" data-name="Path 316" d="M301.483,528.474h-9.665a1.37,1.37,0,1,1,0-2.74h9.665a1.37,1.37,0,1,1,0,2.74Z" transform="translate(-290.448 -525.734)" fill="#c9e0eb" fill-rule="evenodd"/>
        </g>
      </g>
      <g id="Group_78" data-name="Group 78" transform="translate(250.866 502.062)">
        <g id="Group_74" data-name="Group 74" transform="translate(66.399 15.408)">
          <path id="Path_317" data-name="Path 317" d="M329.583,528.872a1.625,1.625,0,1,1-1.624-1.624A1.625,1.625,0,0,1,329.583,528.872Z" transform="translate(-326.333 -527.248)" fill="#c9e0eb" fill-rule="evenodd"/>
        </g>
        <g id="Group_75" data-name="Group 75" transform="translate(85.529)">
          <path id="Path_318" data-name="Path 318" d="M352.635,512.834a2.593,2.593,0,1,1-2.593-2.593A2.594,2.594,0,0,1,352.635,512.834Z" transform="translate(-347.449 -510.241)" fill="#c9e0eb" fill-rule="evenodd"/>
        </g>
        <g id="Group_76" data-name="Group 76" transform="translate(52.34)">
          <path id="Path_319" data-name="Path 319" d="M316,512.834a2.593,2.593,0,1,1-2.593-2.593A2.592,2.592,0,0,1,316,512.834Z" transform="translate(-310.815 -510.241)" fill="#c9e0eb" fill-rule="evenodd"/>
        </g>
        <g id="Group_77" data-name="Group 77" transform="translate(0 79.4)">
          <path id="Path_320" data-name="Path 320" d="M258.229,600.476a2.593,2.593,0,1,1-2.594-2.593A2.594,2.594,0,0,1,258.229,600.476Z" transform="translate(-253.042 -597.883)" fill="#c9e0eb" fill-rule="evenodd"/>
        </g>
      </g>
      <g id="Group_82" data-name="Group 82" transform="translate(232.279 634.069)">
        <g id="Group_79" data-name="Group 79" transform="translate(20.061 24.492)">
          <path id="Path_321" data-name="Path 321" d="M257.6,683.65a1.625,1.625,0,1,1-2.27-.351A1.625,1.625,0,0,1,257.6,683.65Z" transform="translate(-254.669 -682.985)" fill="#c9e0eb" fill-rule="evenodd"/>
        </g>
        <g id="Group_80" data-name="Group 80" transform="translate(26.779)">
          <path id="Path_322" data-name="Path 322" d="M266.771,657.013a2.593,2.593,0,1,1-3.624-.561A2.594,2.594,0,0,1,266.771,657.013Z" transform="translate(-262.085 -655.951)" fill="#c9e0eb" fill-rule="evenodd"/>
        </g>
        <g id="Group_81" data-name="Group 81" transform="translate(0 19.605)">
          <path id="Path_323" data-name="Path 323" d="M237.212,678.653a2.593,2.593,0,1,1-3.624-.561A2.593,2.593,0,0,1,237.212,678.653Z" transform="translate(-232.526 -677.591)" fill="#c9e0eb" fill-rule="evenodd"/>
        </g>
      </g>
      <g id="Group_85" data-name="Group 85" transform="translate(304.292 579.323)">
        <g id="Group_83" data-name="Group 83" transform="translate(4.831)">
          <path id="Path_324" data-name="Path 324" d="M318.716,607.923a1.369,1.369,0,0,1-1.369-1.369v-9.663a1.369,1.369,0,0,1,2.739,0v9.662A1.37,1.37,0,0,1,318.716,607.923Z" transform="translate(-317.347 -595.522)" fill="#c9e0eb" fill-rule="evenodd"/>
        </g>
        <g id="Group_84" data-name="Group 84" transform="translate(0 4.83)">
          <path id="Path_325" data-name="Path 325" d="M323.049,603.592h-9.665a1.369,1.369,0,1,1,0-2.739h9.665a1.369,1.369,0,1,1,0,2.739Z" transform="translate(-312.014 -600.853)" fill="#c9e0eb" fill-rule="evenodd"/>
        </g>
      </g>
      <g id="Group_88" data-name="Group 88" transform="translate(618.607 559.794)">
        <g id="Group_86" data-name="Group 86" transform="translate(4.832)">
          <path id="Path_326" data-name="Path 326" d="M665.657,586.367A1.369,1.369,0,0,1,664.288,585v-9.662a1.369,1.369,0,1,1,2.739,0V585A1.369,1.369,0,0,1,665.657,586.367Z" transform="translate(-664.288 -573.966)" fill="#c9e0eb" fill-rule="evenodd"/>
        </g>
        <g id="Group_87" data-name="Group 87" transform="translate(0 4.83)">
          <path id="Path_327" data-name="Path 327" d="M669.99,582.037h-9.665a1.37,1.37,0,1,1,0-2.74h9.665a1.37,1.37,0,1,1,0,2.74Z" transform="translate(-658.955 -579.297)" fill="#c9e0eb" fill-rule="evenodd"/>
        </g>
      </g>
      <g id="Group_91" data-name="Group 91" transform="translate(229.898 542.591)">
        <g id="Group_89" data-name="Group 89" transform="translate(4.832)">
          <path id="Path_328" data-name="Path 328" d="M236.6,567.378a1.369,1.369,0,0,1-1.369-1.369v-9.662a1.369,1.369,0,1,1,2.739,0v9.661A1.37,1.37,0,0,1,236.6,567.378Z" transform="translate(-235.231 -554.977)" fill="#c9e0eb" fill-rule="evenodd"/>
        </g>
        <g id="Group_90" data-name="Group 90" transform="translate(0 4.83)">
          <path id="Path_329" data-name="Path 329" d="M240.933,563.047h-9.665a1.369,1.369,0,1,1,0-2.739h9.665a1.369,1.369,0,1,1,0,2.739Z" transform="translate(-229.898 -560.308)" fill="#c9e0eb" fill-rule="evenodd"/>
        </g>
      </g>
    </g>
    <g id="Group_107" data-name="Group 107" transform="translate(738.082 -324.122)">
      <path id="Path_334" data-name="Path 334" d="M529.525,736.14H524.5c0-.42-.005-.836-.016-1.252l5.025-.128C529.52,735.217,529.525,735.679,529.525,736.14Z" transform="translate(20.243 10.768)" fill="#0055a3" stroke="#0055a3" stroke-linecap="round" stroke-linejoin="round" stroke-width="0.75"/>
      <path id="Path_335" data-name="Path 335" d="M524.37,732.252c-.192-1.577-.465-3.162-.81-4.708l4.907-1.092c.379,1.705.68,3.452.893,5.19Z" transform="translate(20.006 8.636)" fill="#0055a3" stroke="#0055a3" stroke-linecap="round" stroke-linejoin="round" stroke-width="0.75"/>
      <path id="Path_336" data-name="Path 336" d="M522.9,724.982c-.5-1.508-1.071-3.008-1.711-4.46l4.6-2.029c.707,1.6,1.343,3.257,1.889,4.921Z" transform="translate(19.399 6.593)" fill="#0055a3" stroke="#0055a3" stroke-linecap="round" stroke-linejoin="round" stroke-width="0.75"/>
      <path id="Path_337" data-name="Path 337" d="M450.238,722.388l-4.648-1.912c.665-1.616,1.419-3.219,2.238-4.769l4.442,2.356C451.525,719.468,450.841,720.922,450.238,722.388Z" transform="translate(0 5.879)" fill="#0055a3" stroke="#0055a3" stroke-linecap="round" stroke-linejoin="round" stroke-width="0.75"/>
      <path id="Path_338" data-name="Path 338" d="M520.007,718.122c-.779-1.381-1.636-2.742-2.547-4.044l4.119-2.881c1,1.434,1.948,2.934,2.806,4.457Z" transform="translate(18.442 4.721)" fill="#0055a3" stroke="#0055a3" stroke-linecap="round" stroke-linejoin="round" stroke-width="0.75"/>
      <path id="Path_339" data-name="Path 339" d="M453.7,715.747l-4.191-2.776c.969-1.463,2.019-2.891,3.12-4.246l3.9,3.173C455.536,713.124,454.583,714.419,453.7,715.747Z" transform="translate(1.007 4.087)" fill="#0055a3" stroke="#0055a3" stroke-linecap="round" stroke-linejoin="round" stroke-width="0.75"/>
      <path id="Path_340" data-name="Path 340" d="M515.8,711.933c-1.033-1.206-2.136-2.377-3.281-3.479l3.487-3.62c1.26,1.214,2.475,2.5,3.613,3.83Z" transform="translate(17.174 3.088)" fill="#0055a3" stroke="#0055a3" stroke-linecap="round" stroke-linejoin="round" stroke-width="0.75"/>
      <path id="Path_341" data-name="Path 341" d="M458.369,709.864l-3.575-3.532c1.233-1.249,2.537-2.448,3.879-3.565l3.216,3.863C460.672,707.643,459.489,708.731,458.369,709.864Z" transform="translate(2.362 2.558)" fill="#0055a3" stroke="#0055a3" stroke-linecap="round" stroke-linejoin="round" stroke-width="0.75"/>
      <path id="Path_342" data-name="Path 342" d="M510.45,706.642c-1.244-.985-2.552-1.92-3.888-2.781l2.723-4.225c1.471.949,2.913,1.979,4.284,3.065Z" transform="translate(15.645 1.755)" fill="#0055a3" stroke="#0055a3" stroke-linecap="round" stroke-linejoin="round" stroke-width="0.75"/>
      <path id="Path_343" data-name="Path 343" d="M464.055,704.959l-2.83-4.154c1.455-.991,2.968-1.918,4.5-2.751l2.408,4.413C466.744,703.221,465.374,704.059,464.055,704.959Z" transform="translate(4.012 1.349)" fill="#0055a3" stroke="#0055a3" stroke-linecap="round" stroke-linejoin="round" stroke-width="0.75"/>
      <path id="Path_344" data-name="Path 344" d="M504.16,702.454c-1.416-.726-2.881-1.391-4.353-1.974l1.852-4.673c1.622.643,3.236,1.375,4.8,2.176Z" transform="translate(13.912 0.772)" fill="#0055a3" stroke="#0055a3" stroke-linecap="round" stroke-linejoin="round" stroke-width="0.75"/>
      <path id="Path_345" data-name="Path 345" d="M470.542,701.221l-1.968-4.624c1.612-.687,3.275-1.3,4.941-1.825l1.509,4.793C473.514,700.041,472.006,700.6,470.542,701.221Z" transform="translate(5.898 0.507)" fill="#0055a3" stroke="#0055a3" stroke-linecap="round" stroke-linejoin="round" stroke-width="0.75"/>
      <path id="Path_346" data-name="Path 346" d="M497.157,699.534c-1.522-.436-3.086-.8-4.648-1.088l.9-4.946c1.725.315,3.452.721,5.132,1.2Z" transform="translate(12.039 0.18)" fill="#0055a3" stroke="#0055a3" stroke-linecap="round" stroke-linejoin="round" stroke-width="0.75"/>
      <path id="Path_347" data-name="Path 347" d="M477.6,698.8l-1.032-4.918c1.705-.358,3.456-.636,5.2-.828l.548,5C480.73,698.224,479.143,698.477,477.6,698.8Z" transform="translate(7.948 0.066)" fill="#0055a3" stroke="#0055a3" stroke-linecap="round" stroke-linejoin="round" stroke-width="0.75"/>
      <path id="Path_348" data-name="Path 348" d="M489.727,698c-1.371-.116-2.768-.173-4.152-.173l-.63.005-.057-5.026.672-.005c1.537,0,3.074.064,4.584.191Z" transform="translate(10.084)" fill="#0055a3" stroke="#0055a3" stroke-linecap="round" stroke-linejoin="round" stroke-width="0.75"/>
      <path id="Path_349" data-name="Path 349" d="M528.063,743.538l-7.681-7.681h15.361Z" transform="translate(19.191 11.049)" fill="#0055a3" stroke="#0055a3" stroke-linecap="round" stroke-linejoin="round" stroke-width="0.75"/>
      <g id="Group_102" data-name="Group 102" transform="translate(457.641 708.889)">
        <g id="Group_101" data-name="Group 101">
          <path id="Path_350" data-name="Path 350" d="M512.319,714.463a38.026,38.026,0,0,1,0,53.768l-26.884-26.885Z" transform="translate(-447.417 -703.33)" fill="#c9e0eb"/>
          <path id="Path_351" data-name="Path 351" d="M512.319,716.736,485.435,743.62V705.6A37.954,37.954,0,0,1,512.319,716.736Z" transform="translate(-447.417 -705.603)" fill="#84d800"/>
          <path id="Path_352" data-name="Path 352" d="M490.925,735.857l26.884,26.885a38.026,38.026,0,0,1-53.768,0Z" transform="translate(-452.907 -697.84)" fill="#fff"/>
          <path id="Path_353" data-name="Path 353" d="M493.2,705.6V743.62L466.313,770.5A38.02,38.02,0,0,1,493.2,705.6Z" transform="translate(-455.18 -705.603)" fill="#fff"/>
        </g>
      </g>
      <g id="Group_106" data-name="Group 106" transform="translate(455.128 706.376)">
        <g id="Group_103" data-name="Group 103">
          <path id="Path_354" data-name="Path 354" d="M493.711,784.665a40.531,40.531,0,1,1,28.659-69.194l0,0a40.531,40.531,0,0,1-28.662,69.191Zm0-76.035a35.5,35.5,0,1,0,25.108,10.4h0A35.318,35.318,0,0,0,493.711,708.629Z" transform="translate(-453.18 -703.603)" fill="#0055a3" stroke="#0055a3" stroke-linecap="round" stroke-linejoin="round" stroke-width="0.75"/>
        </g>
        <g id="Group_104" data-name="Group 104" transform="translate(38.018 2.513)">
          <path id="Path_355" data-name="Path 355" d="M511.324,772.552l-27.889-27.891V705.6h5.026v36.977L514.883,769Z" transform="translate(-483.435 -705.603)" fill="#0055a3" stroke="#0055a3" stroke-linecap="round" stroke-linejoin="round" stroke-width="0.75"/>
        </g>
        <g id="Group_105" data-name="Group 105" transform="translate(11.596 11.599)">
          <path id="Path_356" data-name="Path 356" d="M465.967,770.7l-3.559-3.551,54.312-54.312,3.559,3.551Z" transform="translate(-462.408 -712.833)" fill="#0055a3" stroke="#0055a3" stroke-linecap="round" stroke-linejoin="round" stroke-width="0.75"/>
        </g>
      </g>
    </g>
    <g id="Group_110" data-name="Group 110" transform="translate(738.876 -369.411)">
      <path id="Path_357" data-name="Path 357" d="M660.463,800.533a37.374,37.374,0,1,0-14.869,13.477,18.634,18.634,0,0,0,24.647-1.5c.371-.371.71-.763,1.043-1.156Z" transform="translate(24.968)" fill="#fafbfc" stroke="#0055a3" stroke-miterlimit="10" stroke-width="6"/>
      <path id="Path_358" data-name="Path 358" d="M609.466,755.45a37.231,37.231,0,0,0-31.521,57.124L567.124,823.4c.333.393.672.783,1.043,1.154a18.634,18.634,0,0,0,24.647,1.5,37.266,37.266,0,1,0,16.652-70.6Z" transform="translate(0 12.249)" fill="#fafbfc" stroke="#0055a3" stroke-miterlimit="10" stroke-width="6"/>
      <g id="Group_108" data-name="Group 108" transform="translate(588.6 802.1)">
        <path id="Path_359" data-name="Path 359" d="M586.432,776.833A4.331,4.331,0,1,1,582.1,772.5,4.331,4.331,0,0,1,586.432,776.833Z" transform="translate(-577.769 -772.502)" fill="#0055a3"/>
        <circle id="Ellipse_43" data-name="Ellipse 43" cx="4.332" cy="4.332" r="4.332" transform="translate(16.534)" fill="#0055a3"/>
        <path id="Path_360" data-name="Path 360" d="M602.823,776.833a4.331,4.331,0,1,1-4.331-4.331A4.331,4.331,0,0,1,602.823,776.833Z" transform="translate(-561.092 -772.502)" fill="#0055a3"/>
      </g>
      <g id="Group_109" data-name="Group 109" transform="translate(636.252 777.258)">
        <path id="Path_361" data-name="Path 361" d="M608.254,763.62a3.433,3.433,0,1,1-3.434-3.432A3.434,3.434,0,0,1,608.254,763.62Z" transform="translate(-601.389 -760.188)" fill="#0055a3"/>
        <path id="Path_362" data-name="Path 362" d="M614.748,763.62a3.433,3.433,0,1,1-3.434-3.432A3.434,3.434,0,0,1,614.748,763.62Z" transform="translate(-594.782 -760.188)" fill="#0055a3"/>
        <path id="Path_363" data-name="Path 363" d="M621.242,763.62a3.433,3.433,0,1,1-3.434-3.432A3.434,3.434,0,0,1,621.242,763.62Z" transform="translate(-588.174 -760.188)" fill="#0055a3"/>
      </g>
    </g>
    <line id="Line_29" data-name="Line 29" x1="78" transform="translate(932 625.47) rotate(180)" fill="none" stroke="#0055a3" stroke-linecap="round" stroke-width="3" stroke-dasharray="3 6"/>
    <path id="Path_415" data-name="Path 415" d="M-1260.65,417.5s-32.35-2.464-32.35,37" transform="translate(-332.5 1042.97) rotate(180)" fill="none" stroke="#0055a3" stroke-linecap="round" stroke-width="3" stroke-dasharray="3 6"/>
    <path id="Path_423" data-name="Path 423" d="M-1260.65,417.5s-32.35-2.464-32.35,37" transform="translate(-332.5 1042.97) rotate(180)" fill="none" stroke="#0055a3" stroke-linecap="round" stroke-width="3" stroke-dasharray="3 6"/>
  </g>
</svg>
