<svg xmlns="http://www.w3.org/2000/svg" width="655" height="481" viewBox="0 0 655 481">
  <g id="Group_194" data-name="Group 194" transform="translate(-417 -2010)">
    <g id="Ellipse_38" data-name="Ellipse 38" transform="translate(417 2054)" fill="none" stroke="#0055a3" stroke-linecap="round" stroke-width="3" stroke-dasharray="3 6">
      <circle cx="218.5" cy="218.5" r="218.5" stroke="none"/>
      <circle cx="218.5" cy="218.5" r="217" fill="none"/>
    </g>
    <g id="Group_149" data-name="Group 149" transform="translate(449 2149)" opacity="0.47">
      <path id="Path_331" data-name="Path 331" d="M441.278,291.1H156.6c-34.207,0-61.942-27.067-61.942-60.456s27.735-60.456,61.942-60.456a62.763,62.763,0,0,1,33.942,9.882A59.964,59.964,0,0,1,290.16,121.6a49.062,49.062,0,1,1,92.885,29.86q1.478-.1,2.981-.1a43.882,43.882,0,0,1,41.964,56.618A42.621,42.621,0,1,1,441.278,291.1Z" transform="translate(-94.657 -82.478)" fill="#c9e0eb" fill-rule="evenodd"/>
    </g>
    <g id="Group_148" data-name="Group 148" transform="translate(694.109 2384.079)">
      <g id="Group_144" data-name="Group 144">
        <rect id="Rectangle_1120" data-name="Rectangle 1120" width="210.588" height="174.008" rx="14.194" transform="translate(-166.08 -208.597)" stroke-width="6" stroke="#0055a3" stroke-linecap="round" stroke-linejoin="round" fill="#fafbfc"/>
        <line id="Line_23" data-name="Line 23" x2="210.588" transform="translate(-166.08 -80.796)" fill="#fafbfc" stroke="#0055a3" stroke-linecap="round" stroke-linejoin="round" stroke-width="6"/>
        <path id="Path_386" data-name="Path 386" d="M-52.5-56.628a8.283,8.283,0,0,1-8.282,8.283,8.283,8.283,0,0,1-8.283-8.283,8.283,8.283,0,0,1,8.283-8.283A8.283,8.283,0,0,1-52.5-56.628Z" fill="#fafbfc" stroke="#0055a3" stroke-linecap="round" stroke-linejoin="round" stroke-width="6"/>
        <rect id="Rectangle_1121" data-name="Rectangle 1121" width="50.473" height="27.505" transform="translate(-86.023 -34.59)" stroke-width="6" stroke="#0055a3" stroke-linecap="round" stroke-linejoin="round" fill="#fafbfc"/>
        <path id="Rectangle_1122" data-name="Rectangle 1122" d="M8.529,0h96.252a8.529,8.529,0,0,1,8.529,8.529v5.5a8.529,8.529,0,0,1-8.529,8.529H8.528A8.528,8.528,0,0,1,0,14.029v-5.5A8.529,8.529,0,0,1,8.529,0Z" transform="translate(-117.441 -7.084)" fill="#fafbfc" stroke="#0055a3" stroke-linecap="round" stroke-linejoin="round" stroke-width="6"/>
      </g>
      <g id="Group_146" data-name="Group 146">
        <g id="Group_145" data-name="Group 145">
          <path id="Path_387" data-name="Path 387" d="M-157.366-208.375h-24.743l28.537-29.7h19.332Z" fill="#c9e0eb" stroke="#0055a3" stroke-linejoin="round" stroke-width="5"/>
          <path id="Path_388" data-name="Path 388" d="M-132.722-208.375h-24.743l23.148-29.7h19.332Z" fill="#fafbfc" stroke="#0055a3" stroke-linejoin="round" stroke-width="5"/>
          <path id="Path_389" data-name="Path 389" d="M-108.186-208.375h-24.743l17.782-29.7h19.333Z" fill="#c9e0eb" stroke="#0055a3" stroke-linejoin="round" stroke-width="5"/>
          <path id="Path_390" data-name="Path 390" d="M-83.541-208.375h-24.743l12.393-29.7h19.332Z" fill="#fafbfc" stroke="#0055a3" stroke-linejoin="round" stroke-width="5"/>
          <path id="Path_391" data-name="Path 391" d="M-59.005-208.375H-83.748l7.028-29.7h19.332Z" fill="#c9e0eb" stroke="#0055a3" stroke-linejoin="round" stroke-width="5"/>
          <path id="Path_392" data-name="Path 392" d="M-34.361-208.375H-59.1l1.639-29.7h19.332Z" fill="#fafbfc" stroke="#0055a3" stroke-linejoin="round" stroke-width="5"/>
          <path id="Path_393" data-name="Path 393" d="M-9.825-208.375H-34.568l-3.727-29.7h19.332Z" fill="#c9e0eb" stroke="#0055a3" stroke-linejoin="round" stroke-width="5"/>
          <path id="Path_394" data-name="Path 394" d="M14.82-208.375H-9.924l-9.116-29.7H.293Z" fill="#fafbfc" stroke="#0055a3" stroke-linejoin="round" stroke-width="5"/>
          <path id="Path_395" data-name="Path 395" d="M39.355-208.375H14.612L.131-238.079H19.464Z" fill="#c9e0eb" stroke="#0055a3" stroke-linejoin="round" stroke-width="5"/>
          <path id="Path_396" data-name="Path 396" d="M64-208.375H39.257l-19.87-29.7H38.719Z" fill="#fafbfc" stroke="#0055a3" stroke-linejoin="round" stroke-width="5"/>
        </g>
        <path id="Path_397" data-name="Path 397" d="M-169.777-189.25h0A12.324,12.324,0,0,1-182.1-201.574v-6.8h24.647v6.8A12.324,12.324,0,0,1-169.777-189.25Z" fill="#c9e0eb" stroke="#0055a3" stroke-linejoin="round" stroke-width="5"/>
        <path id="Path_398" data-name="Path 398" d="M-145.181-189.25h0a12.324,12.324,0,0,1-12.324-12.324v-6.8h24.647v6.8A12.324,12.324,0,0,1-145.181-189.25Z" fill="#fafbfc" stroke="#0055a3" stroke-linejoin="round" stroke-width="5"/>
        <path id="Path_399" data-name="Path 399" d="M-120.586-189.25h0a12.324,12.324,0,0,1-12.323-12.324v-6.8h24.647v6.8A12.324,12.324,0,0,1-120.586-189.25Z" fill="#c9e0eb" stroke="#0055a3" stroke-linejoin="round" stroke-width="5"/>
        <path id="Path_400" data-name="Path 400" d="M-95.99-189.25h0a12.324,12.324,0,0,1-12.324-12.324v-6.8h24.648v6.8A12.324,12.324,0,0,1-95.99-189.25Z" fill="#fafbfc" stroke="#0055a3" stroke-linejoin="round" stroke-width="5"/>
        <path id="Path_401" data-name="Path 401" d="M-71.394-189.25h0a12.324,12.324,0,0,1-12.324-12.324v-6.8h24.647v6.8A12.324,12.324,0,0,1-71.394-189.25Z" fill="#c9e0eb" stroke="#0055a3" stroke-linejoin="round" stroke-width="5"/>
        <path id="Path_402" data-name="Path 402" d="M-46.8-189.25h0a12.324,12.324,0,0,1-12.323-12.324v-6.8h24.647v6.8A12.324,12.324,0,0,1-46.8-189.25Z" fill="#fafbfc" stroke="#0055a3" stroke-linejoin="round" stroke-width="5"/>
        <path id="Path_403" data-name="Path 403" d="M-22.2-189.25h0a12.324,12.324,0,0,1-12.324-12.324v-6.8H-9.879v6.8A12.324,12.324,0,0,1-22.2-189.25Z" fill="#c9e0eb" stroke="#0055a3" stroke-linejoin="round" stroke-width="5"/>
        <path id="Path_404" data-name="Path 404" d="M2.393-189.25h0A12.324,12.324,0,0,1-9.931-201.574v-6.8H14.716v6.8A12.324,12.324,0,0,1,2.393-189.25Z" fill="#fafbfc" stroke="#0055a3" stroke-linejoin="round" stroke-width="5"/>
        <path id="Path_405" data-name="Path 405" d="M26.988-189.25h0a12.324,12.324,0,0,1-12.323-12.324v-6.8H39.312v6.8A12.324,12.324,0,0,1,26.988-189.25Z" fill="#c9e0eb" stroke="#0055a3" stroke-linejoin="round" stroke-width="5"/>
        <path id="Path_406" data-name="Path 406" d="M51.584-189.25h0A12.324,12.324,0,0,1,39.26-201.574v-6.8H63.907v6.8A12.324,12.324,0,0,1,51.584-189.25Z" fill="#fafbfc" stroke="#0055a3" stroke-linejoin="round" stroke-width="5"/>
      </g>
      <g id="Group_147" data-name="Group 147" transform="translate(-9 6)">
        <path id="Path_407" data-name="Path 407" d="M23.519-96.737a7.6,7.6,0,0,1-7.6,7.6,7.6,7.6,0,0,1-7.6-7.6,7.6,7.6,0,0,1,7.6-7.6A7.6,7.6,0,0,1,23.519-96.737Z" transform="translate(10.346 36.446)" fill="#fafbfc" stroke="#0055a3" stroke-linecap="round" stroke-linejoin="round" stroke-width="5"/>
        <circle id="Ellipse_45" data-name="Ellipse 45" cx="6.485" cy="6.485" r="6.485" transform="translate(77.884 -70.689)" stroke-width="5" stroke="#0055a3" stroke-linecap="round" stroke-linejoin="round" fill="#fafbfc"/>
        <path id="Path_408" data-name="Path 408" d="M77.116-113.655H15.577l-9.39-39.688H86.771Z" transform="translate(9.186 9.81)" fill="#fafbfc" stroke="#0055a3" stroke-linecap="round" stroke-linejoin="round" stroke-width="5"/>
        <path id="Path_409" data-name="Path 409" d="M27-61.361l9.329-9.327H88a7.958,7.958,0,0,0,7.957-7.958h0A7.957,7.957,0,0,0,88-86.6H28.843L8.782-171.392H-10.713" transform="translate(0)" fill="none" stroke="#0055a3" stroke-linecap="round" stroke-linejoin="round" stroke-width="5"/>
        <line id="Line_24" data-name="Line 24" x2="51.481" transform="translate(18.669 -130.797)" fill="none" stroke="#0055a3" stroke-linecap="round" stroke-linejoin="round" stroke-width="5"/>
        <line id="Line_25" data-name="Line 25" x2="34.132" transform="translate(21.532 -117.499)" fill="none" stroke="#0055a3" stroke-linecap="round" stroke-linejoin="round" stroke-width="5"/>
      </g>
    </g>
    <line id="Line_26" data-name="Line 26" x2="47" transform="translate(623.5 2230.5)" fill="none" stroke="#0055a3" stroke-linecap="round" stroke-width="6"/>
    <line id="Line_27" data-name="Line 27" x2="47" transform="translate(600.5 2253.5)" fill="none" stroke="#0055a3" stroke-linecap="round" stroke-width="6"/>
    <line id="Line_28" data-name="Line 28" x2="47" transform="translate(635.5 2276.5)" fill="none" stroke="#0055a3" stroke-linecap="round" stroke-width="6"/>
    <g id="Group_150" data-name="Group 150" transform="translate(228.102 1725.499)">
      <g id="Group_49" data-name="Group 49" transform="translate(528.976 444.809)">
        <g id="Group_47" data-name="Group 47" transform="translate(5.399)">
          <path id="Path_298" data-name="Path 298" d="M567.508,460.9a1.53,1.53,0,0,1-1.529-1.53v-10.8a1.53,1.53,0,1,1,3.06,0v10.8A1.531,1.531,0,0,1,567.508,460.9Z" transform="translate(-565.979 -447.045)" fill="#c9e0eb" fill-rule="evenodd"/>
        </g>
        <g id="Group_48" data-name="Group 48" transform="translate(0 5.397)">
          <path id="Path_299" data-name="Path 299" d="M572.349,456.062h-10.8a1.53,1.53,0,1,1,0-3.06h10.8a1.53,1.53,0,1,1,0,3.06Z" transform="translate(-560.02 -453.002)" fill="#c9e0eb" fill-rule="evenodd"/>
        </g>
      </g>
      <g id="Group_52" data-name="Group 52" transform="translate(553.455 528.193)">
        <g id="Group_50" data-name="Group 50" transform="translate(4.831)">
          <path id="Path_300" data-name="Path 300" d="M593.741,551.487a1.37,1.37,0,0,1-1.369-1.37v-9.662a1.369,1.369,0,1,1,2.739,0v9.662A1.37,1.37,0,0,1,593.741,551.487Z" transform="translate(-592.372 -539.085)" fill="#c9e0eb" fill-rule="evenodd"/>
        </g>
        <g id="Group_51" data-name="Group 51" transform="translate(0 4.83)">
          <path id="Path_301" data-name="Path 301" d="M598.074,547.155H588.41a1.369,1.369,0,1,1,0-2.739h9.664a1.369,1.369,0,1,1,0,2.739Z" transform="translate(-587.04 -544.416)" fill="#c9e0eb" fill-rule="evenodd"/>
        </g>
      </g>
      <g id="Group_55" data-name="Group 55" transform="translate(346.201 423.262)">
        <g id="Group_53" data-name="Group 53" transform="translate(4.831)">
          <path id="Path_302" data-name="Path 302" d="M364.975,435.663a1.369,1.369,0,0,1-1.369-1.369v-9.662a1.369,1.369,0,1,1,2.739,0v9.661A1.37,1.37,0,0,1,364.975,435.663Z" transform="translate(-363.606 -423.262)" fill="#c9e0eb" fill-rule="evenodd"/>
        </g>
        <g id="Group_54" data-name="Group 54" transform="translate(0 4.83)">
          <path id="Path_303" data-name="Path 303" d="M369.308,431.332h-9.665a1.369,1.369,0,1,1,0-2.739h9.665a1.369,1.369,0,0,1,0,2.739Z" transform="translate(-358.273 -428.593)" fill="#c9e0eb" fill-rule="evenodd"/>
        </g>
      </g>
      <g id="Group_58" data-name="Group 58" transform="translate(257.134 606.913)">
        <g id="Group_56" data-name="Group 56" transform="translate(4.832)">
          <path id="Path_304" data-name="Path 304" d="M266.663,638.377a1.369,1.369,0,0,1-1.369-1.369v-9.663a1.369,1.369,0,0,1,2.739,0v9.662A1.37,1.37,0,0,1,266.663,638.377Z" transform="translate(-265.294 -625.976)" fill="#c9e0eb" fill-rule="evenodd"/>
        </g>
        <g id="Group_57" data-name="Group 57" transform="translate(0 4.83)">
          <path id="Path_305" data-name="Path 305" d="M271,634.046h-9.665a1.369,1.369,0,1,1,0-2.739H271a1.369,1.369,0,1,1,0,2.739Z" transform="translate(-259.961 -631.307)" fill="#c9e0eb" fill-rule="evenodd"/>
        </g>
      </g>
      <g id="Group_62" data-name="Group 62" transform="translate(406.565 435.002)">
        <g id="Group_59" data-name="Group 59" transform="translate(14.059 15.409)">
          <path id="Path_306" data-name="Path 306" d="M443.671,454.853a1.625,1.625,0,1,1-1.625-1.624A1.626,1.626,0,0,1,443.671,454.853Z" transform="translate(-440.421 -453.229)" fill="#c9e0eb" fill-rule="evenodd"/>
        </g>
        <g id="Group_60" data-name="Group 60" transform="translate(33.189)">
          <path id="Path_307" data-name="Path 307" d="M466.723,438.815a2.593,2.593,0,1,1-2.593-2.594A2.594,2.594,0,0,1,466.723,438.815Z" transform="translate(-461.537 -436.221)" fill="#c9e0eb" fill-rule="evenodd"/>
        </g>
        <g id="Group_61" data-name="Group 61">
          <path id="Path_308" data-name="Path 308" d="M430.089,438.815a2.593,2.593,0,1,1-2.593-2.594A2.593,2.593,0,0,1,430.089,438.815Z" transform="translate(-424.903 -436.221)" fill="#c9e0eb" fill-rule="evenodd"/>
        </g>
      </g>
      <g id="Group_66" data-name="Group 66" transform="translate(592.614 603.722)">
        <g id="Group_63" data-name="Group 63" transform="translate(0 16.973)">
          <path id="Path_309" data-name="Path 309" d="M632.254,644.4a1.625,1.625,0,1,1,1.218-1.949A1.624,1.624,0,0,1,632.254,644.4Z" transform="translate(-630.263 -641.189)" fill="#c9e0eb" fill-rule="evenodd"/>
        </g>
        <g id="Group_64" data-name="Group 64" transform="translate(17.624 32.337)">
          <path id="Path_310" data-name="Path 310" d="M652.894,663.268a2.593,2.593,0,1,1,1.943-3.11A2.593,2.593,0,0,1,652.894,663.268Z" transform="translate(-649.717 -658.148)" fill="#c9e0eb" fill-rule="evenodd"/>
        </g>
        <g id="Group_65" data-name="Group 65" transform="translate(10.154)">
          <path id="Path_311" data-name="Path 311" d="M644.649,627.575a2.593,2.593,0,1,1,1.943-3.11A2.594,2.594,0,0,1,644.649,627.575Z" transform="translate(-641.472 -622.454)" fill="#c9e0eb" fill-rule="evenodd"/>
        </g>
      </g>
      <g id="Group_70" data-name="Group 70" transform="translate(568.914 488.735)">
        <g id="Group_67" data-name="Group 67" transform="translate(0 16.972)">
          <path id="Path_312" data-name="Path 312" d="M606.094,517.474a1.625,1.625,0,1,1,1.218-1.949A1.625,1.625,0,0,1,606.094,517.474Z" transform="translate(-604.104 -514.265)" fill="#c9e0eb" fill-rule="evenodd"/>
        </g>
        <g id="Group_68" data-name="Group 68" transform="translate(17.624 32.337)">
          <path id="Path_313" data-name="Path 313" d="M626.734,536.345a2.593,2.593,0,1,1,1.943-3.109A2.594,2.594,0,0,1,626.734,536.345Z" transform="translate(-623.557 -531.225)" fill="#c9e0eb" fill-rule="evenodd"/>
        </g>
        <g id="Group_69" data-name="Group 69" transform="translate(10.154)">
          <path id="Path_314" data-name="Path 314" d="M618.489,500.651a2.593,2.593,0,1,1,1.943-3.11A2.592,2.592,0,0,1,618.489,500.651Z" transform="translate(-615.312 -495.531)" fill="#c9e0eb" fill-rule="evenodd"/>
        </g>
      </g>
      <g id="Group_73" data-name="Group 73" transform="translate(284.754 511.268)">
        <g id="Group_71" data-name="Group 71" transform="translate(4.832)">
          <path id="Path_315" data-name="Path 315" d="M297.15,532.8a1.37,1.37,0,0,1-1.369-1.37v-9.662a1.369,1.369,0,1,1,2.739,0v9.662A1.37,1.37,0,0,1,297.15,532.8Z" transform="translate(-295.781 -520.403)" fill="#c9e0eb" fill-rule="evenodd"/>
        </g>
        <g id="Group_72" data-name="Group 72" transform="translate(0 4.83)">
          <path id="Path_316" data-name="Path 316" d="M301.483,528.474h-9.665a1.37,1.37,0,1,1,0-2.74h9.665a1.37,1.37,0,1,1,0,2.74Z" transform="translate(-290.448 -525.734)" fill="#c9e0eb" fill-rule="evenodd"/>
        </g>
      </g>
      <g id="Group_78" data-name="Group 78" transform="translate(250.866 502.062)">
        <g id="Group_74" data-name="Group 74" transform="translate(66.399 15.408)">
          <path id="Path_317" data-name="Path 317" d="M329.583,528.872a1.625,1.625,0,1,1-1.624-1.624A1.625,1.625,0,0,1,329.583,528.872Z" transform="translate(-326.333 -527.248)" fill="#c9e0eb" fill-rule="evenodd"/>
        </g>
        <g id="Group_75" data-name="Group 75" transform="translate(85.529)">
          <path id="Path_318" data-name="Path 318" d="M352.635,512.834a2.593,2.593,0,1,1-2.593-2.593A2.594,2.594,0,0,1,352.635,512.834Z" transform="translate(-347.449 -510.241)" fill="#c9e0eb" fill-rule="evenodd"/>
        </g>
        <g id="Group_76" data-name="Group 76" transform="translate(52.34)">
          <path id="Path_319" data-name="Path 319" d="M316,512.834a2.593,2.593,0,1,1-2.593-2.593A2.592,2.592,0,0,1,316,512.834Z" transform="translate(-310.815 -510.241)" fill="#c9e0eb" fill-rule="evenodd"/>
        </g>
        <g id="Group_77" data-name="Group 77" transform="translate(0 79.4)">
          <path id="Path_320" data-name="Path 320" d="M258.229,600.476a2.593,2.593,0,1,1-2.594-2.593A2.594,2.594,0,0,1,258.229,600.476Z" transform="translate(-253.042 -597.883)" fill="#c9e0eb" fill-rule="evenodd"/>
        </g>
      </g>
      <g id="Group_82" data-name="Group 82" transform="translate(232.279 634.069)">
        <g id="Group_79" data-name="Group 79" transform="translate(20.061 24.492)">
          <path id="Path_321" data-name="Path 321" d="M257.6,683.65a1.625,1.625,0,1,1-2.27-.351A1.625,1.625,0,0,1,257.6,683.65Z" transform="translate(-254.669 -682.985)" fill="#c9e0eb" fill-rule="evenodd"/>
        </g>
        <g id="Group_80" data-name="Group 80" transform="translate(26.779)">
          <path id="Path_322" data-name="Path 322" d="M266.771,657.013a2.593,2.593,0,1,1-3.624-.561A2.594,2.594,0,0,1,266.771,657.013Z" transform="translate(-262.085 -655.951)" fill="#c9e0eb" fill-rule="evenodd"/>
        </g>
        <g id="Group_81" data-name="Group 81" transform="translate(0 19.605)">
          <path id="Path_323" data-name="Path 323" d="M237.212,678.653a2.593,2.593,0,1,1-3.624-.561A2.593,2.593,0,0,1,237.212,678.653Z" transform="translate(-232.526 -677.591)" fill="#c9e0eb" fill-rule="evenodd"/>
        </g>
      </g>
      <g id="Group_85" data-name="Group 85" transform="translate(304.292 579.323)">
        <g id="Group_83" data-name="Group 83" transform="translate(4.831)">
          <path id="Path_324" data-name="Path 324" d="M318.716,607.923a1.369,1.369,0,0,1-1.369-1.369v-9.663a1.369,1.369,0,0,1,2.739,0v9.662A1.37,1.37,0,0,1,318.716,607.923Z" transform="translate(-317.347 -595.522)" fill="#c9e0eb" fill-rule="evenodd"/>
        </g>
        <g id="Group_84" data-name="Group 84" transform="translate(0 4.83)">
          <path id="Path_325" data-name="Path 325" d="M323.049,603.592h-9.665a1.369,1.369,0,1,1,0-2.739h9.665a1.369,1.369,0,1,1,0,2.739Z" transform="translate(-312.014 -600.853)" fill="#c9e0eb" fill-rule="evenodd"/>
        </g>
      </g>
      <g id="Group_88" data-name="Group 88" transform="translate(618.607 559.794)">
        <g id="Group_86" data-name="Group 86" transform="translate(4.832)">
          <path id="Path_326" data-name="Path 326" d="M665.657,586.367A1.369,1.369,0,0,1,664.288,585v-9.662a1.369,1.369,0,1,1,2.739,0V585A1.369,1.369,0,0,1,665.657,586.367Z" transform="translate(-664.288 -573.966)" fill="#c9e0eb" fill-rule="evenodd"/>
        </g>
        <g id="Group_87" data-name="Group 87" transform="translate(0 4.83)">
          <path id="Path_327" data-name="Path 327" d="M669.99,582.037h-9.665a1.37,1.37,0,1,1,0-2.74h9.665a1.37,1.37,0,1,1,0,2.74Z" transform="translate(-658.955 -579.297)" fill="#c9e0eb" fill-rule="evenodd"/>
        </g>
      </g>
      <g id="Group_91" data-name="Group 91" transform="translate(229.898 542.591)">
        <g id="Group_89" data-name="Group 89" transform="translate(4.832)">
          <path id="Path_328" data-name="Path 328" d="M236.6,567.378a1.369,1.369,0,0,1-1.369-1.369v-9.662a1.369,1.369,0,1,1,2.739,0v9.661A1.37,1.37,0,0,1,236.6,567.378Z" transform="translate(-235.231 -554.977)" fill="#c9e0eb" fill-rule="evenodd"/>
        </g>
        <g id="Group_90" data-name="Group 90" transform="translate(0 4.83)">
          <path id="Path_329" data-name="Path 329" d="M240.933,563.047h-9.665a1.369,1.369,0,1,1,0-2.739h9.665a1.369,1.369,0,1,1,0,2.739Z" transform="translate(-229.898 -560.308)" fill="#c9e0eb" fill-rule="evenodd"/>
        </g>
      </g>
    </g>
    <g id="Group_162" data-name="Group 162" transform="translate(0 1225)">
      <g id="Ellipse_47" data-name="Ellipse 47" transform="translate(1029 785)" fill="none" stroke="#0055a3" stroke-linecap="round" stroke-width="3" stroke-dasharray="3 6">
        <circle cx="21.5" cy="21.5" r="21.5" stroke="none"/>
        <circle cx="21.5" cy="21.5" r="20" fill="none"/>
      </g>
      <line id="Line_30" data-name="Line 30" x1="78" transform="translate(950.5 806.5)" fill="none" stroke="#0055a3" stroke-linecap="round" stroke-width="3" stroke-dasharray="3 6"/>
      <line id="Line_31" data-name="Line 31" y2="189" transform="translate(921.5 849.5)" fill="none" stroke="#0055a3" stroke-linecap="round" stroke-width="3" stroke-dasharray="3 6"/>
      <path id="Path_416" data-name="Path 416" d="M-1260.65,417.5s-32.35-2.464-32.35,37" transform="translate(2215 389)" fill="none" stroke="#0055a3" stroke-linecap="round" stroke-width="3" stroke-dasharray="3 6"/>
      <line id="Line_32" data-name="Line 32" x2="38.5" transform="translate(854.5 1075.47)" fill="none" stroke="#0055a3" stroke-linecap="round" stroke-width="3" stroke-dasharray="3 6"/>
      <path id="Path_417" data-name="Path 417" d="M-1260.65,417.5s-32.35-2.464-32.35,37" transform="translate(-371.5 1492.97) rotate(180)" fill="none" stroke="#0055a3" stroke-linecap="round" stroke-width="3" stroke-dasharray="3 6"/>
      <g id="Ellipse_48" data-name="Ellipse 48" transform="translate(1029 785)" fill="none" stroke="#0055a3" stroke-linecap="round" stroke-width="3" stroke-dasharray="3 6">
        <circle cx="21.5" cy="21.5" r="21.5" stroke="none"/>
        <circle cx="21.5" cy="21.5" r="20" fill="none"/>
      </g>
      <line id="Line_33" data-name="Line 33" x1="78" transform="translate(950.5 806.5)" fill="none" stroke="#0055a3" stroke-linecap="round" stroke-width="3" stroke-dasharray="3 6"/>
      <line id="Line_34" data-name="Line 34" y2="189" transform="translate(921.5 849.5)" fill="none" stroke="#0055a3" stroke-linecap="round" stroke-width="3" stroke-dasharray="3 6"/>
      <path id="Path_418" data-name="Path 418" d="M-1260.65,417.5s-32.35-2.464-32.35,37" transform="translate(2215 389)" fill="none" stroke="#0055a3" stroke-linecap="round" stroke-width="3" stroke-dasharray="3 6"/>
      <line id="Line_35" data-name="Line 35" x2="38.5" transform="translate(854.5 1075.47)" fill="none" stroke="#0055a3" stroke-linecap="round" stroke-width="3" stroke-dasharray="3 6"/>
      <path id="Path_419" data-name="Path 419" d="M-1260.65,417.5s-32.35-2.464-32.35,37" transform="translate(-371.5 1492.97) rotate(180)" fill="none" stroke="#0055a3" stroke-linecap="round" stroke-width="3" stroke-dasharray="3 6"/>
    </g>
  </g>
</svg>
