<svg xmlns="http://www.w3.org/2000/svg" width="184.343" height="49.77" viewBox="0 0 184.343 49.77">
  <g id="Group_10" data-name="Group 10" transform="translate(-219 -27)">
    <g id="Group_9" data-name="Group 9" transform="translate(219 27)">
      <g id="Group_6" data-name="Group 6">
        <g id="Group_5" data-name="Group 5">
          <g id="Group_3" data-name="Group 3">
            <path id="Path_41" data-name="Path 41" d="M252.507,280.1a3.585,3.585,0,0,1,1.362.151,2.352,2.352,0,0,0,2.639-.473l1.848-2.006a2.613,2.613,0,0,0,.38-2.738,3.593,3.593,0,0,1-.145-1.347,4.962,4.962,0,0,1,9.924,0v.616a1.868,1.868,0,0,0,1.182,1.882l2.683,1.335a2.916,2.916,0,0,0,2.83-.289,4.3,4.3,0,0,1,2.486-.75h.832a2.161,2.161,0,0,0,2.42-.818l3.238-4.75a2.47,2.47,0,0,0-.083-2.719,4.263,4.263,0,0,1-.726-2.452,4.957,4.957,0,0,1,8.513-3.458,25.159,25.159,0,0,0-44.23,23.833,4.954,4.954,0,0,1,4.847-6.016Z" transform="translate(-245.266 -250.249)" fill="#84d800"/>
            <path id="Path_42" data-name="Path 42" d="M337.636,274.1a25.109,25.109,0,0,1,1.3,2.4A4.954,4.954,0,0,0,337.636,274.1Z" transform="translate(-291.012 -262.061)" fill="#0055a3"/>
          </g>
          <g id="Group_4" data-name="Group 4" transform="translate(7.526 14.455)">
            <circle id="Ellipse_29" data-name="Ellipse 29" cx="1.852" cy="1.852" r="1.852" transform="translate(18.81 8.626)" fill="#fff"/>
            <circle id="Ellipse_30" data-name="Ellipse 30" cx="1.042" cy="1.042" r="1.042" transform="translate(22.064 6.438)" fill="#fff"/>
            <circle id="Ellipse_31" data-name="Ellipse 31" cx="1.852" cy="1.852" r="1.852" transform="translate(0.284 11.405)" fill="#fff"/>
            <circle id="Ellipse_32" data-name="Ellipse 32" cx="1.042" cy="1.042" r="1.042" transform="translate(0 8.505)" fill="#fff"/>
            <circle id="Ellipse_33" data-name="Ellipse 33" cx="1.042" cy="1.042" r="1.042" transform="translate(26.293)" fill="#fff"/>
            <circle id="Ellipse_34" data-name="Ellipse 34" cx="1.852" cy="1.852" r="1.852" transform="translate(27.335 2.965)" fill="#fff"/>
          </g>
          <path id="Path_43" data-name="Path 43" d="M290.574,271.12a4.968,4.968,0,0,0-4.962,4.962,4.263,4.263,0,0,0,.726,2.452,2.472,2.472,0,0,1,.083,2.72L283.183,286a2.161,2.161,0,0,1-2.42.818h-.832a4.3,4.3,0,0,0-2.486.75,2.916,2.916,0,0,1-2.83.289l-2.683-1.335a1.868,1.868,0,0,1-1.182-1.882v-.616a4.962,4.962,0,0,0-9.924,0,3.594,3.594,0,0,0,.145,1.347,2.613,2.613,0,0,1-.38,2.738l-1.848,2.006a2.352,2.352,0,0,1-2.639.473,3.584,3.584,0,0,0-1.362-.151A4.962,4.962,0,1,0,259.7,295.4a3.714,3.714,0,0,0-.112-1.255A2.669,2.669,0,0,1,260,291.4l1.868-2.027a2.4,2.4,0,0,1,2.651-.5,3.674,3.674,0,0,0,1.271.118,4.185,4.185,0,0,0,2.364-.667,2.992,2.992,0,0,1,2.851-.261l2.734,1.36c.828.412,1.382,1.221,1.232,1.8v.564a4.962,4.962,0,1,0,9.924,0,3.759,3.759,0,0,0-.365-1.848,2.823,2.823,0,0,1,.064-2.821l3.387-4.967a2.223,2.223,0,0,1,2.018-1.1h.578a4.962,4.962,0,0,0,0-9.924Zm-35.832,27.455a3.172,3.172,0,1,1,3.172-3.172A3.176,3.176,0,0,1,254.742,298.575Zm12.279-11.625a3.164,3.164,0,0,1-1.234.249h0a3.172,3.172,0,1,1,0-6.345h0a3.173,3.173,0,0,1,1.234,6.1Zm12.909,8a3.172,3.172,0,1,1,3.172-3.172A3.176,3.176,0,0,1,279.93,294.955Zm10.644-15.7a3.172,3.172,0,1,1,3.172-3.172A3.176,3.176,0,0,1,290.574,279.255Z" transform="translate(-247.502 -260.585)" fill="#0055a3"/>
          <path id="Path_44" data-name="Path 44" d="M251.4,323.9a25.069,25.069,0,0,1-1.331-2.354A4.958,4.958,0,0,0,251.4,323.9Z" transform="translate(-247.645 -285.561)" fill="#0055a3"/>
          <path id="Path_45" data-name="Path 45" d="M251.3,323.721a25.181,25.181,0,0,1-1.3-2.4A4.958,4.958,0,0,0,251.3,323.721Z" transform="translate(-247.614 -285.445)" fill="#0055a3"/>
        </g>
      </g>
      <path id="Path_46" data-name="Path 46" d="M296.758,279.032a4.927,4.927,0,0,1-4.9,5.713h-.578a2.223,2.223,0,0,0-2.017,1.1l-3.387,4.967a2.824,2.824,0,0,0-.064,2.821,3.764,3.764,0,0,1,.364,1.848,4.962,4.962,0,0,1-9.924,0v-.565c.15-.576-.4-1.384-1.232-1.8l-2.734-1.361a3,3,0,0,0-2.851.261,4.183,4.183,0,0,1-2.364.667,3.672,3.672,0,0,1-1.27-.118,2.4,2.4,0,0,0-2.651.5l-1.868,2.027a2.668,2.668,0,0,0-.406,2.75,3.7,3.7,0,0,1,.112,1.255,4.959,4.959,0,0,1-8.447,3.527,25.133,25.133,0,0,0,44.216-23.6Z" transform="translate(-248.869 -264.504)" fill="#c9e0eb"/>
      <g id="Group_8" data-name="Group 8" transform="translate(61.13 6.806)">
        <g id="Group_7" data-name="Group 7">
          <path id="Path_47" data-name="Path 47" d="M366.723,280.823V264.248h3.515v13.673h6.723v2.9Z" transform="translate(-366.547 -263.988)" fill="#84d800"/>
          <path id="Path_48" data-name="Path 48" d="M400.81,280.756l-1.2-3.945h-6.043l-1.2,3.945h-3.787l5.85-16.643h4.3l5.873,16.643Zm-2.041-6.893q-1.666-5.363-1.877-6.066t-.3-1.111q-.374,1.451-2.143,7.176Z" transform="translate(-377.371 -263.921)" fill="#84d800"/>
          <path id="Path_49" data-name="Path 49" d="M450.718,272.257a8.991,8.991,0,0,1-2.041,6.326,8.845,8.845,0,0,1-11.7,0,9.026,9.026,0,0,1-2.041-6.349q0-4.138,2.046-6.32a7.653,7.653,0,0,1,5.867-2.182,7.546,7.546,0,0,1,5.844,2.2A9.017,9.017,0,0,1,450.718,272.257Zm-12.1,0a6.925,6.925,0,0,0,1.054,4.183,3.689,3.689,0,0,0,3.152,1.406q4.205,0,4.206-5.589t-4.183-5.6a3.715,3.715,0,0,0-3.163,1.411A6.9,6.9,0,0,0,438.622,272.257Z" transform="translate(-400.33 -263.732)" fill="#0055a3"/>
          <path id="Path_50" data-name="Path 50" d="M487.712,280.823h-4.467l-7.21-12.539h-.1q.215,3.322.216,4.739v7.8h-3.141V264.248h4.433l7.2,12.414h.079q-.17-3.231-.17-4.569v-7.845h3.163Z" transform="translate(-419.185 -263.988)" fill="#0055a3"/>
          <path id="Path_51" data-name="Path 51" d="M510.406,280.823V264.248h3.514v13.673h6.723v2.9Z" transform="translate(-437.707 -263.988)" fill="#0055a3"/>
          <path id="Path_52" data-name="Path 52" d="M536.393,280.823V264.248h3.515v16.575Z" transform="translate(-450.577 -263.988)" fill="#0055a3"/>
          <path id="Path_53" data-name="Path 53" d="M566.325,280.823h-4.466l-7.211-12.539h-.1q.215,3.322.216,4.739v7.8h-3.141V264.248h4.433l7.2,12.414h.08q-.17-3.231-.17-4.569v-7.845h3.163Z" transform="translate(-458.118 -263.988)" fill="#0055a3"/>
          <path id="Path_54" data-name="Path 54" d="M598.565,280.823h-9.546V264.248h9.546v2.88h-6.031v3.639h5.612v2.88h-5.612v4.274h6.031Z" transform="translate(-476.64 -263.988)" fill="#0055a3"/>
          <path id="Path_55" data-name="Path 55" d="M372.8,329.192l-3.655-11.909h-.093q.2,3.634.2,4.849v7.06h-2.876v-15.18h4.382l3.592,11.608h.062l3.811-11.608H382.6v15.18h-3v-7.185c0-.339.006-.731.016-1.173s.057-1.62.14-3.531h-.094l-3.914,11.888Z" transform="translate(-366.375 -288.633)" fill="#84d800"/>
          <path id="Path_56" data-name="Path 56" d="M413.514,329.131l-1.1-3.613H406.88l-1.1,3.613h-3.468l5.357-15.242H411.6l5.379,15.242Zm-1.869-6.313q-1.527-4.911-1.718-5.555t-.276-1.017q-.342,1.329-1.962,6.572Z" transform="translate(-384.172 -288.572)" fill="#84d800"/>
          <path id="Path_57" data-name="Path 57" d="M438.38,323.367v5.825h-3.218v-15.18h4.423a7.569,7.569,0,0,1,4.579,1.127,4.492,4.492,0,0,1,.748,5.8,4.887,4.887,0,0,1-2.087,1.635q3.426,5.118,4.464,6.614h-3.572l-3.624-5.825Zm0-2.617h1.039a3.973,3.973,0,0,0,2.253-.508,1.818,1.818,0,0,0,.726-1.6,1.661,1.661,0,0,0-.742-1.536,4.5,4.5,0,0,0-2.3-.457h-.976Z" transform="translate(-400.442 -288.633)" fill="#84d800"/>
          <path id="Path_58" data-name="Path 58" d="M475.183,329.192h-3.654l-3.977-6.4-1.36.976v5.419h-3.219v-15.18h3.219v6.946l1.267-1.786,4.111-5.161h3.572l-5.3,6.718Z" transform="translate(-414.215 -288.633)" fill="#84d800"/>
          <path id="Path_59" data-name="Path 59" d="M499.691,329.192h-8.742v-15.18h8.742v2.637h-5.524v3.333h5.14v2.638h-5.14v3.914h5.524Z" transform="translate(-428.07 -288.633)" fill="#84d800"/>
          <path id="Path_60" data-name="Path 60" d="M518.942,329.192h-3.219v-12.5H511.6v-2.679h11.463v2.679h-4.122Z" transform="translate(-438.298 -288.633)" fill="#84d800"/>
          <path id="Path_61" data-name="Path 61" d="M538.94,329.192v-15.18h3.218v15.18Z" transform="translate(-451.838 -288.633)" fill="#84d800"/>
          <path id="Path_62" data-name="Path 62" d="M566.353,329.192h-4.091l-6.6-11.484h-.093q.2,3.043.2,4.34v7.143h-2.876v-15.18h4.06l6.594,11.369h.072q-.156-2.96-.156-4.184v-7.185h2.9Z" transform="translate(-458.745 -288.633)" fill="#84d800"/>
          <path id="Path_63" data-name="Path 63" d="M592.236,320.453h6.022v7.871a16.987,16.987,0,0,1-2.756.67,18.005,18.005,0,0,1-2.643.192,6.685,6.685,0,0,1-5.248-2.02,8.4,8.4,0,0,1-1.812-5.8,7.648,7.648,0,0,1,2.1-5.731,7.984,7.984,0,0,1,5.83-2.056,11.275,11.275,0,0,1,4.506.935l-1.069,2.575a7.642,7.642,0,0,0-3.458-.83,4.27,4.27,0,0,0-3.343,1.4,5.437,5.437,0,0,0-1.256,3.769,6.051,6.051,0,0,0,1.012,3.775,3.5,3.5,0,0,0,2.943,1.3,10.349,10.349,0,0,0,2.045-.208v-3.166h-2.876Z" transform="translate(-475.044 -288.419)" fill="#84d800"/>
        </g>
      </g>
    </g>
  </g>
</svg>
